<svg width="40" height="40" viewBox="0 0 40 40" fill="none" xmlns="http://www.w3.org/2000/svg">
<g opacity="0.6">
<path d="M30.5858 21.4407C31.9927 24.6912 34.5042 27.2112 37.2943 28.7267C34.4338 30.3586 31.7894 32.8561 30.4052 36.3339C28.8225 33.2642 27.0907 30.4117 23.9937 28.6793C26.8277 27.1665 29.1575 24.6435 30.5858 21.4407Z" stroke="#0E1124" stroke-width="2.60366"/>
<path d="M9.57021 21.4407C10.977 24.6912 13.4886 27.2112 16.2787 28.7267C13.4182 30.3586 10.7737 32.8561 9.38958 36.3339C7.80687 33.2642 6.07512 30.4117 2.97803 28.6793C5.81205 27.1665 8.14189 24.6435 9.57021 21.4407Z" stroke="#0E1124" stroke-width="2.60366"/>
<path d="M20.0624 4.05003C21.4692 7.30053 23.9808 9.82054 26.7709 11.3361C23.9104 12.968 21.2659 15.4655 19.8818 18.9433C18.2991 15.8736 16.5673 13.0211 13.4702 11.2887C16.3042 9.77584 18.6341 7.25286 20.0624 4.05003Z" stroke="#0E1124" stroke-width="2.60366"/>
</g>
</svg>
