<svg width="53" height="48" viewBox="0 0 53 48" fill="none" xmlns="http://www.w3.org/2000/svg">
<g opacity="0.8">
<path d="M40.7524 24.4487C42.5251 28.7868 46.1276 32.0784 50.0788 33.9219C46.0564 35.9193 42.2912 39.1233 40.5699 43.7325C38.3106 39.6976 36.0094 35.972 31.5512 33.8668C35.5872 32.0286 38.901 28.7292 40.7524 24.4487Z" stroke="white" stroke-width="2.60366"/>
<path d="M13.3891 24.4487C15.1618 28.7868 18.7643 32.0784 22.7155 33.9219C18.6932 35.9193 14.9279 39.1233 13.2066 43.7325C10.9473 39.6976 8.64607 35.972 4.18794 33.8668C8.22392 32.0286 11.5377 28.7292 13.3891 24.4487Z" stroke="white" stroke-width="2.60366"/>
<path d="M27.0493 3.94484C28.822 8.28284 32.4245 11.5745 36.3757 13.418C32.3533 15.4154 28.5881 18.6194 26.8668 23.2285C24.6075 19.1937 22.3062 15.4681 17.8481 13.3629C21.8841 11.5247 25.1979 8.22526 27.0493 3.94484Z" stroke="white" stroke-width="2.60366"/>
</g>
</svg>
