<svg width="60" height="60" viewBox="0 0 60 60" fill="none" xmlns="http://www.w3.org/2000/svg">
<g clip-path="url(#clip0_1308_8258)">
<path fill-rule="evenodd" clip-rule="evenodd" d="M21.2295 41.8975C21.6235 42.3106 22.2829 42.3106 22.6769 41.8975L45.3703 18.1026C45.7643 17.6895 46.4236 17.6895 46.8176 18.1026L52.4172 23.974C53.04 24.627 54.1409 24.1862 54.1409 23.2838V9.90625C54.1409 9.35396 53.6931 8.90625 53.1409 8.90625H6.85949C6.3072 8.90625 5.85949 9.35396 5.85949 9.90625L5.85938 40.1588C5.85938 41.0611 6.96026 41.5019 7.58304 40.8489L13.1826 34.9775C13.5766 34.5644 14.2359 34.5644 14.6299 34.9775L21.2295 41.8975Z" fill="#FEDE65"/>
<path d="M56.4844 3.04688H3.5155C1.57699 3.04688 0 4.62398 0 6.56249V53.4374C0 55.3759 1.57699 56.953 3.5155 56.953H56.4844C58.4229 56.953 60 55.3759 60 53.4374V6.56249C60 4.62398 58.4229 3.04688 56.4844 3.04688ZM57.6563 53.4374C57.6563 54.0836 57.1306 54.6093 56.4844 54.6093H3.5155C2.86933 54.6093 2.34375 54.0837 2.34375 53.4374V6.56249C2.34375 5.91632 2.86933 5.39062 3.5155 5.39062H56.4844C57.1306 5.39062 57.6563 5.91632 57.6563 6.56249V53.4374Z" fill="#0E1124"/>
<path d="M48.8309 18.5152H49.4532C51.0064 18.4575 51.0053 16.2285 49.4532 16.1714H47.2658V13.7543C47.2082 12.2011 44.9791 12.2023 44.9221 13.7543V16.1714H39.2189V13.7543C39.1612 12.2011 36.9322 12.2023 36.8752 13.7543V16.1714H31.172V13.7543C31.1143 12.2011 28.8853 12.2023 28.8282 13.7543V16.1714H23.1251V13.7543C23.0674 12.2011 20.8384 12.2023 20.7813 13.7543V16.1714H15.0782V13.7543C15.0205 12.2011 12.7915 12.2023 12.7344 13.7543V16.1714H10.547C8.99379 16.2291 8.99496 18.4581 10.547 18.5152H12.7344V24.6089H10.547C8.99379 24.6666 8.99496 26.8956 10.547 26.9527H12.7344V33.0464H10.547C8.99379 33.1041 8.99496 35.3331 10.547 35.3902H11.1694L5.01141 41.8471C4.80352 42.0651 4.6875 42.3547 4.6875 42.6559L4.68762 51.0932C4.68762 51.7404 5.21238 52.265 5.85949 52.265H54.1409C54.788 52.265 55.3127 51.7404 55.3127 51.0932V25.7807C55.3127 25.4795 55.1968 25.1898 54.9888 24.9718L48.8309 18.5152ZM43.357 18.5152L39.2189 22.854V18.5152H43.357ZM20.7813 39.7289L16.6432 35.3901H20.7813V39.7289ZM23.1251 35.3901H27.2632L23.1251 39.7289V35.3901ZM28.8282 33.0463H23.1251V26.9525H28.8282V33.0463ZM31.172 26.9525H35.3101L31.172 31.2915V26.9525ZM36.8752 18.5152V24.6089H31.172V18.5152H36.8752ZM28.8282 18.5152V24.6089H23.1251V18.5152H28.8282ZM15.0782 18.5152H20.7813V24.6089H15.0782V18.5152ZM15.0782 26.9525H20.7813V33.0463H15.0782V26.9525ZM52.969 49.9213H7.03137L7.03125 43.1249L13.9063 35.9162L21.1052 43.4645C21.5441 43.9444 22.3624 43.9444 22.8013 43.4645L46.0939 19.0412L52.969 26.2499V49.9213Z" fill="#0E1124"/>
<path d="M40.6643 46.2499C41.2148 46.5706 41.9397 46.3865 42.265 45.821L48.1244 35.6722C48.4481 35.1117 48.256 34.395 47.6955 34.0714C47.1348 33.7475 46.4183 33.9398 46.0947 34.5003L40.2354 44.6491C39.9117 45.2095 40.1038 45.9262 40.6643 46.2499Z" fill="#0E1124"/>
<path d="M41.2509 36.2578C42.8041 36.2002 42.8029 33.9711 41.2509 33.9141H41.2499C39.6967 33.972 39.6988 36.2009 41.2509 36.2578Z" fill="#0E1124"/>
<path d="M47.1098 44.0625H47.109C46.4619 44.0625 45.9375 44.5871 45.9375 45.2344C45.9952 46.7869 48.2244 46.787 48.2817 45.2344C48.2817 44.5871 47.757 44.0625 47.1098 44.0625Z" fill="#0E1124"/>
</g>
<defs>
<clipPath id="clip0_1308_8258">
<rect width="60" height="60" fill="white"/>
</clipPath>
</defs>
</svg>
