<svg width="48" height="48" viewBox="0 0 48 48" fill="none" xmlns="http://www.w3.org/2000/svg">
<path fill-rule="evenodd" clip-rule="evenodd" d="M10.286 25.5365L33.8305 19.2278C34.8266 18.9609 35.86 19.5576 36.1268 20.5536L39.0386 31.4202C39.3054 32.4162 38.7087 33.4497 37.7127 33.7166L14.1683 40.0254C13.1723 40.2923 12.1388 39.6956 11.8719 38.6995L8.96019 27.8328C8.69328 26.8367 9.28991 25.8034 10.286 25.5365Z" fill="#FEDE65"/>
<path d="M43.4129 9.64959L34.0379 0.274594C33.8621 0.0988125 33.6237 0 33.375 0H5.25C4.73222 0 4.3125 0.419813 4.3125 0.9375V47.0625C4.3125 47.5802 4.73222 48 5.25 48H42.75C43.2678 48 43.6875 47.5802 43.6875 47.0625V10.3125C43.6875 10.0639 43.5887 9.82547 43.4129 9.64959ZM34.3125 3.20081L40.4866 9.375H34.3125V3.20081ZM6.1875 46.125V1.875H32.4375V10.3125C32.4375 10.8302 32.8572 11.25 33.375 11.25H41.8125V46.125H6.1875Z" fill="#0E1124"/>
<path d="M9.70305 5.625V11.2499C9.74918 12.4925 11.5324 12.4915 11.5781 11.2499V5.625H12.2812C13.5237 5.57887 13.5228 3.79566 12.2812 3.75H8.99993C7.75737 3.79613 7.7583 5.57934 8.99993 5.625H9.70305Z" fill="#0E1124"/>
<path d="M15.0234 12.1887C15.5412 12.1887 15.9609 11.7689 15.9609 11.2512V9.84488H17.8359V11.2512C17.8821 12.4938 19.6653 12.4929 19.7109 11.2512V6.56382C19.5691 2.8367 14.2264 2.83951 14.0859 6.56382V11.2512C14.0859 11.7689 14.5057 12.1887 15.0234 12.1887ZM15.9609 6.56382C16.0082 5.32135 17.7892 5.32229 17.8359 6.56382V7.96988H15.9609V6.56382Z" fill="#0E1124"/>
<path d="M21.3427 12.0887C21.7958 12.3182 22.368 12.1372 22.6005 11.6694L23.4026 10.0652L24.2048 11.6694C24.4373 12.1372 25.0093 12.3181 25.4626 12.0887C25.9257 11.8572 26.1134 11.294 25.8818 10.831L24.4507 7.969L25.8817 5.107C26.1132 4.64397 25.9255 4.08081 25.4624 3.84925C24.9991 3.61759 24.4361 3.80528 24.2046 4.26859L23.4025 5.87275L22.6005 4.26859C22.3689 3.80546 21.8059 3.61778 21.3427 3.84925C20.8795 4.08081 20.6918 4.64397 20.9234 5.107L22.3544 7.969L20.9234 10.8311C20.6918 11.2941 20.8795 11.8573 21.3427 12.0887Z" fill="#0E1124"/>
<path d="M38.0624 15H9.93743C8.69487 15.0461 8.6958 16.8293 9.93743 16.875H38.0624C39.305 16.8289 39.3041 15.0457 38.0624 15Z" fill="#0E1124"/>
<path d="M15.0234 18.75H9.93743C8.69487 18.7961 8.6958 20.5793 9.93743 20.625H15.0234C16.2659 20.5789 16.265 18.7957 15.0234 18.75Z" fill="#0E1124"/>
<path d="M23.1089 25.8637C22.4571 25.4875 21.6995 25.3869 20.9759 25.5808C20.2522 25.7746 19.6464 26.2404 19.27 26.8923C18.8937 27.5441 18.7932 28.3017 18.9871 29.0254L20.4429 34.4586C20.8095 35.6506 22.5346 35.1777 22.254 33.9734L21.7687 32.1622L23.5798 31.6769L24.0651 33.488C24.1992 33.9881 24.7131 34.285 25.2134 34.1509C25.7134 34.0169 26.0103 33.5029 25.8763 33.0028L24.4204 27.5695C24.2266 26.846 23.7608 26.2401 23.1089 25.8637ZM21.2835 30.3512L20.7982 28.5403C20.7339 28.3003 20.7679 28.0481 20.8938 27.8299C21.0198 27.6119 21.2212 27.4564 21.4611 27.392C21.7012 27.3277 21.9533 27.3618 22.1714 27.4878C22.3895 27.6137 22.5451 27.8151 22.6093 28.055L23.0945 29.866L21.2835 30.3512Z" fill="#0E1124"/>
<path d="M25.9568 24.247C25.4567 24.3811 25.1599 24.8951 25.2939 25.3952L27.235 32.6396C27.3672 33.1438 27.8965 33.4372 28.3832 33.3025C28.8833 33.1684 29.1801 32.6544 29.0461 32.1543L27.105 24.9099C26.9711 24.4098 26.457 24.113 25.9568 24.247Z" fill="#0E1124"/>
<path d="M18.0809 29.2688C17.887 28.545 17.4212 27.9393 16.7694 27.563C16.1175 27.1866 15.3599 27.0862 14.6364 27.2801L12.8253 27.7653C12.3363 27.8861 12.0224 28.4296 12.1624 28.9135L14.1036 36.158C14.2358 36.6624 14.7652 36.9555 15.2518 36.8209C15.7519 36.6868 16.0487 36.1728 15.9147 35.6727L15.1868 32.956L16.0924 32.7133C17.5902 32.3119 18.4824 30.7666 18.0809 29.2688ZM15.6069 30.9023L14.7014 31.1449L14.2162 29.3338L15.1218 29.0912C15.3615 29.0269 15.6138 29.0608 15.8319 29.1868C16.0501 29.3128 16.2055 29.5142 16.2699 29.7541C16.4036 30.2533 16.1063 30.7684 15.6069 30.9023Z" fill="#0E1124"/>
<path d="M30.8411 32.3601C31.0568 32.4846 31.3134 32.5179 31.5525 32.4537L33.3636 31.9684C34.0872 31.7745 34.693 31.3087 35.0694 30.6569C35.4457 30.0051 35.5462 29.2476 35.3523 28.5239L34.3817 24.9016C34.1878 24.1779 33.7221 23.5721 33.0702 23.1958C32.4183 22.8194 31.6607 22.719 30.9372 22.9129L29.1261 23.3981C28.6371 23.5189 28.3232 24.0624 28.4632 24.5463L30.4044 31.7907C30.4687 32.031 30.6258 32.2356 30.8411 32.3601ZM31.4226 24.7239C31.6622 24.6595 31.9147 24.6936 32.1327 24.8196C32.3508 24.9456 32.5063 25.1469 32.5706 25.3868L33.5412 29.0091C33.6055 29.2491 33.5715 29.5012 33.4456 29.7194C33.3197 29.9375 33.1182 30.093 32.8783 30.1573L31.9728 30.3999L30.5169 24.9666L31.4226 24.7239Z" fill="#0E1124"/>
<path d="M38.0624 42.1875H9.93743C8.69487 42.2336 8.6958 44.0168 9.93743 44.0625H38.0624C39.305 44.0164 39.3041 42.2332 38.0624 42.1875Z" fill="#0E1124"/>
<path d="M38.0624 38.4375H32.9765C31.7339 38.4836 31.7349 40.2668 32.9765 40.3125H38.0624C39.305 40.2664 39.3041 38.4832 38.0624 38.4375Z" fill="#0E1124"/>
</svg>
