<svg width="60" height="61" viewBox="0 0 60 61" fill="none" xmlns="http://www.w3.org/2000/svg">
<g clip-path="url(#clip0_1308_8307)">
<path d="M58.8281 51.4952H57.6561V13.9639C57.6561 12.0237 56.079 10.4453 54.1405 10.4453H45.2343C43.6811 10.503 43.6823 12.7338 45.2343 12.791H54.1405C54.7867 12.791 55.3124 13.3172 55.3124 13.9639V51.4952H37.0312C36.3841 51.4952 35.8593 52.0204 35.8593 52.668H24.1406C24.1406 52.0204 23.6158 51.4952 22.9687 51.4952H4.68749V13.9639C4.68749 13.3172 5.21319 12.791 5.85936 12.791H14.7656C16.3188 12.7333 16.3176 10.5025 14.7656 10.4453H5.85936C3.92085 10.4453 2.34375 12.0237 2.34375 13.9639V51.4952H1.17187C0.524765 51.4952 0 52.0204 0 52.668V56.1866C0 58.1267 1.57699 59.7052 3.5155 59.7052H56.4844C58.4229 59.7052 60 58.1267 60 56.1866V52.668C60 52.0204 59.4752 51.4952 58.8281 51.4952ZM57.6563 56.1866C57.6563 56.8333 57.1306 57.3594 56.4844 57.3594H3.5155C2.86933 57.3594 2.34375 56.8333 2.34375 56.1866V53.8409H22.1114C22.5173 54.5415 23.2749 55.0137 24.1406 55.0137H35.8593C36.7251 55.0137 37.4827 54.5415 37.8885 53.8409H57.6563V56.1866Z" fill="#0E1124"/>
<path fill-rule="evenodd" clip-rule="evenodd" d="M13.5938 3.17384V47.977H46.4064V3.17384L43.1251 0.828125L39.8439 3.17384L36.5626 0.828125L33.2812 3.17384L30.0001 0.828125L26.7188 3.17384L23.4375 0.828125L20.1562 3.17384L16.875 0.828125L13.5938 3.17384Z" fill="#FEDE65"/>
<path d="M55.7549 46.8047H4.2504C2.6972 46.8624 2.69837 49.0932 4.2504 49.1504H55.7549C57.3081 49.0927 57.3069 46.8619 55.7549 46.8047Z" fill="#0E1124"/>
<path d="M27.5078 18.6576C28.1549 18.6576 28.6797 18.1324 28.6797 17.4848V15.7254H31.0234V17.4848C31.0811 19.0393 33.31 19.0381 33.3672 17.4848V11.6206C33.1899 6.95804 26.5116 6.96155 26.3359 11.6206V17.4848C26.3359 18.1326 26.8606 18.6576 27.5078 18.6576ZM28.6797 11.6206C28.7389 10.0665 30.9648 10.0676 31.0234 11.6206V13.3797H28.6797V11.6206Z" fill="#0E1124"/>
<path d="M35.402 18.5337C35.9684 18.8206 36.6836 18.5945 36.9743 18.0092L37.9769 16.0024L38.9796 18.0092C39.7268 19.3775 41.7214 18.3666 41.0759 16.9601L39.2872 13.3797L41.0759 9.79935C41.3654 9.21996 41.1308 8.51542 40.5519 8.22573C39.9726 7.93591 39.269 8.17072 38.9796 8.75023L37.9769 10.7571L36.9743 8.75023C36.6848 8.17095 35.9807 7.93603 35.402 8.22573C34.8232 8.51542 34.5886 9.21996 34.8779 9.79935L36.6666 13.3797L34.8779 16.9601C34.5884 17.5395 34.823 18.244 35.402 18.5337Z" fill="#0E1124"/>
<path d="M19.9769 10.4473H20.8557V17.4843C20.9133 19.0388 23.1422 19.0376 23.1994 17.4843V10.4473H24.0783C25.6315 10.3896 25.6304 8.1588 24.0783 8.10156H19.9769C18.4238 8.15938 18.425 10.3902 19.9769 10.4473Z" fill="#0E1124"/>
<path d="M19.9769 25.6973H40.0305C41.5837 25.6396 41.5825 23.4088 40.0305 23.3516H19.9769C18.4238 23.4094 18.425 25.6402 19.9769 25.6973Z" fill="#0E1124"/>
<path d="M19.9769 30.3848H40.0305C41.5837 30.3271 41.5825 28.0963 40.0305 28.0391H19.9769C18.4238 28.0969 18.425 30.3277 19.9769 30.3848Z" fill="#0E1124"/>
<path d="M19.9769 35.0801H30.0037C31.5569 35.0224 31.5557 32.7916 30.0037 32.7344H19.9769C18.4238 32.7922 18.425 35.023 19.9769 35.0801Z" fill="#0E1124"/>
<path d="M19.9769 39.7676H40.0305C41.5837 39.7099 41.5825 37.4791 40.0305 37.4219H19.9769C18.4238 37.4797 18.425 39.7105 19.9769 39.7676Z" fill="#0E1124"/>
<path d="M19.9769 44.4629H40.0305C41.5837 44.4052 41.5825 42.1744 40.0305 42.1172H19.9769C18.4238 42.175 18.425 44.4058 19.9769 44.4629Z" fill="#0E1124"/>
</g>
<defs>
<clipPath id="clip0_1308_8307">
<rect width="60" height="60.0503" fill="white" transform="translate(0 0.242188)"/>
</clipPath>
</defs>
</svg>
