<svg width="48" height="48" viewBox="0 0 48 48" fill="none" xmlns="http://www.w3.org/2000/svg">
<g clip-path="url(#clip0_1308_8223)">
<path fill-rule="evenodd" clip-rule="evenodd" d="M25.7437 21.0515H46.8156C46.9383 2.44431 23.8819 -7.06104 10.8438 6.15138L25.7437 21.0515Z" fill="#FEDE65"/>
<path d="M44.2299 25.0931H23.5468L8.92176 10.468C8.57218 10.1044 7.94369 10.1044 7.59411 10.468C-0.94041 18.7554 -0.966131 33.3167 7.59429 41.5957C15.7869 50.1339 30.5292 50.1347 38.7218 41.5954C42.8791 37.4384 45.1686 31.9111 45.1686 26.0319C45.1686 25.5134 44.7483 25.0931 44.2299 25.0931ZM8.27309 12.4745L20.8917 25.0931H3.04621C3.26109 20.3796 5.092 15.9595 8.27309 12.4745ZM3.04649 26.9706H22.616L32.3995 43.9161C19.7007 50.7464 3.49606 41.3632 3.04649 26.9706ZM34.0239 42.9747L24.784 26.9706H43.2695C42.9601 33.6836 39.3478 39.5486 34.0239 42.9747Z" fill="#0E1124"/>
<path d="M17.8308 34.924L16.8924 34.5352C16.4977 34.3818 16.2914 33.8834 16.4619 33.4958C16.5425 33.3013 16.6957 33.1491 16.8932 33.0672C17.0907 32.9854 17.3066 32.9847 17.5012 33.0653L17.9705 33.2597C18.4494 33.4582 18.9987 33.2306 19.197 32.7516C19.3955 32.2726 19.168 31.7235 18.689 31.5251L18.2196 31.3307C18.128 31.2927 18.0351 31.2601 17.9411 31.2328V30.8078C17.8949 29.5636 16.1094 29.5645 16.0636 30.8078V31.3816C15.4562 31.6651 14.9843 32.1569 14.7273 32.7774C14.4548 33.4352 14.4555 34.1615 14.7292 34.8224C15.003 35.4833 15.516 35.9973 16.1738 36.2697L17.1124 36.6585C17.5175 36.8263 17.7107 37.2926 17.5428 37.6978C17.4623 37.8924 17.3091 38.0446 17.1115 38.1264C16.914 38.2082 16.698 38.2089 16.5034 38.1283L16.0342 37.934C15.555 37.7355 15.006 37.9631 14.8077 38.4421C14.6093 38.9211 14.8368 39.4702 15.3157 39.6685L15.785 39.8629C15.8766 39.9009 15.9697 39.9335 16.0635 39.9608V40.3857C16.1097 41.6299 17.8953 41.629 17.941 40.3857V39.812C18.5484 39.5284 19.0204 39.0367 19.2773 38.4162C19.8414 37.0548 19.1924 35.4881 17.8308 34.924Z" fill="#0E1124"/>
<path d="M24.6527 8.90871C24.2597 8.90871 23.9194 8.96151 23.6319 9.06711C23.3445 9.16684 23.1186 9.26657 22.9543 9.36631L23.1567 10.6687C23.2623 10.61 23.3943 10.5455 23.5527 10.4751C23.7111 10.4047 23.8813 10.346 24.0631 10.2991C24.245 10.2463 24.4239 10.2199 24.5999 10.2199C24.8229 10.2199 24.9989 10.2551 25.1279 10.3255C25.2629 10.39 25.3303 10.4956 25.3303 10.6423C25.3303 10.7538 25.2863 10.8652 25.1983 10.9767C25.1162 11.0823 25.0106 11.1908 24.8815 11.3023C24.7583 11.4079 24.6322 11.5164 24.5031 11.6279L22.8399 13.0711V14.0039H26.8175L26.7119 12.7455H25.1103L25.4711 12.4375C25.741 12.2087 25.9698 11.9916 26.1575 11.7863C26.3511 11.5751 26.4978 11.361 26.5975 11.1439C26.7031 10.9268 26.7559 10.698 26.7559 10.4575C26.7559 10.0879 26.665 9.78871 26.4831 9.55991C26.3071 9.33111 26.0607 9.16684 25.7439 9.06711C25.433 8.96151 25.0693 8.90871 24.6527 8.90871ZM32.1949 12.2703H31.3149V8.97911H30.1181L27.0821 12.3583L27.2669 13.5287H29.7133V14.5583H31.3149V13.5287H32.1157L32.1949 12.2703ZM29.7133 11.3903V12.2703H28.9653L29.7133 11.3903ZM35.0842 7.79111L32.4618 14.0039H34.1074L36.7386 7.79111H35.0842ZM39.3686 14.6815L41.2078 9.65671L40.9086 9.02311H36.9134L37.063 10.2815H39.4566L37.7758 14.2679L39.3686 14.6815Z" fill="#0E1124"/>
</g>
<defs>
<clipPath id="clip0_1308_8223">
<rect width="48" height="48" fill="white"/>
</clipPath>
</defs>
</svg>
