<svg width="60" height="61" viewBox="0 0 60 61" fill="none" xmlns="http://www.w3.org/2000/svg">
<g clip-path="url(#clip0_1308_8273)">
<path fill-rule="evenodd" clip-rule="evenodd" d="M9.04882 20.5121H50.9561C50.9943 19.7154 51.0231 18.924 51.044 18.1403C45.1292 16.4867 40.472 11.8136 38.8369 5.88672H21.1679C19.5329 11.8136 14.8757 16.4867 8.96094 18.1403C8.98191 18.9238 9.01062 19.7153 9.04882 20.5121Z" fill="#FEDE65"/>
<path fill-rule="evenodd" clip-rule="evenodd" d="M47.6794 38.2188H12.3242C12.9815 39.8778 13.7623 41.463 14.6892 42.9436C18.3095 48.7268 23.6388 52.0974 30.0019 54.0169C36.3649 52.0974 41.6942 48.7268 45.3145 42.9436C46.2414 41.4632 47.0221 39.878 47.6794 38.2188Z" fill="#FEDE65"/>
<path d="M24.1405 24.0898H20.0394C18.4863 24.1475 18.4875 26.3781 20.0394 26.4353H20.9182V33.4717C20.9758 35.0261 23.2045 35.0249 23.2617 33.4717V26.4353H24.1405C25.6936 26.3776 25.6924 24.1471 24.1405 24.0898Z" fill="#0E1124"/>
<path d="M29.9137 24.0898C27.9754 24.0898 26.3984 25.6681 26.3984 27.6081V33.4718C26.4561 35.0262 28.6848 35.025 28.742 33.4718V31.7126H31.0855V33.4718C31.1432 35.0262 33.3719 35.025 33.429 33.4718V27.6081C33.429 25.6681 31.8521 24.0898 29.9137 24.0898ZM31.0855 29.3671H28.742V27.6081C28.8011 26.0541 31.0269 26.0553 31.0855 27.6081V29.3671Z" fill="#0E1124"/>
<path d="M40.4848 24.214C39.906 23.9242 39.2022 24.159 38.9128 24.7386L37.9102 26.7453L36.9076 24.7386C36.6182 24.1591 35.914 23.9242 35.3356 24.214C34.7568 24.5037 34.5222 25.2081 34.8115 25.7874L36.6001 29.3675L34.8115 32.9477C34.522 33.5269 34.7566 34.2314 35.3356 34.5211C35.902 34.808 36.6172 34.5817 36.9076 33.9965L37.9102 31.9898L38.9128 33.9965C39.2031 34.5817 39.9185 34.808 40.4848 34.5211C41.0637 34.2314 41.2983 33.5269 41.009 32.9477L39.2204 29.3675L41.009 25.7874C41.2983 25.208 41.0637 24.5037 40.4848 24.214Z" fill="#0E1124"/>
<path d="M55.6671 29.3668L59.8697 21.1032C60.2771 20.3587 59.673 19.3728 58.8255 19.3985H56.8597C56.9207 17.736 56.9506 15.99 56.9506 14.0964C56.9506 13.7854 56.8271 13.4872 56.6074 13.2672C56.3876 13.0473 56.0896 12.9237 55.7789 12.9237C49.3176 12.9237 44.0612 7.66285 44.0612 1.19619C44.0612 0.548595 43.5365 0.0234375 42.8894 0.0234375H17.1105C16.4635 0.0234375 15.9388 0.548595 15.9388 1.19619C15.9388 7.66285 10.6823 12.9237 4.2212 12.9237C3.57415 12.9237 3.04943 13.4489 3.04943 14.0964C3.04943 15.991 3.07931 17.737 3.14025 19.3985H1.17449C0.326833 19.3728 -0.277213 20.3588 0.13021 21.1032L4.33299 29.3668L0.13021 37.6305C-0.277213 38.375 0.32695 39.3609 1.17449 39.3352H6.47603C10.4066 50.1215 18.0099 56.8943 29.6967 60.0285C29.8953 60.0819 30.1045 60.0819 30.3032 60.0285C41.9891 56.8947 49.5919 50.1217 53.5225 39.3352H58.8255C59.6731 39.3609 60.2771 38.3748 59.8697 37.6305L55.6671 29.3668ZM5.39672 15.2205C12.2158 14.6533 17.6685 9.19423 18.234 2.36894H41.7662C42.3315 9.19423 47.7842 14.6533 54.6036 15.2205C54.5937 16.6906 54.5643 18.0718 54.5146 19.3985H5.48542C5.43574 18.0728 5.40645 16.6914 5.39672 15.2205ZM30 57.6805C19.5735 54.8055 12.6815 48.7944 8.98139 39.3352H51.0169C47.3171 48.7946 40.4255 54.8058 30 57.6805ZM3.08588 36.9897L6.69211 29.8988C6.86201 29.5646 6.86201 29.169 6.69211 28.8349L3.08588 21.744H56.9143L53.3081 28.8349C53.1382 29.1692 53.1382 29.5646 53.3081 29.8988L56.9143 36.9897H3.08588Z" fill="#0E1124"/>
</g>
<defs>
<clipPath id="clip0_1308_8273">
<rect width="60" height="60.0503" fill="white" transform="translate(0 0.0195312)"/>
</clipPath>
</defs>
</svg>
