<svg width="60" height="61" viewBox="0 0 60 61" fill="none" xmlns="http://www.w3.org/2000/svg">
<g clip-path="url(#clip0_1308_8289)">
<path fill-rule="evenodd" clip-rule="evenodd" d="M28.1257 54.319C46.7093 54.4938 57.1626 32.2169 45.4532 18.0398C45.3313 18.2957 45.1645 18.5355 44.9529 18.7474C43.9556 19.7456 42.3386 19.7456 41.3412 18.7474C40.3438 17.7492 40.3438 16.1308 41.3412 15.1327C41.5504 14.9233 41.7868 14.758 42.0389 14.6364C27.852 2.99798 5.68429 13.4837 5.86042 32.0353C5.8603 44.342 15.8289 54.319 28.1257 54.319Z" fill="#FEDE65"/>
<path d="M20.8011 21.4785H21.68C23.2332 21.4208 23.232 19.19 21.68 19.1328H17.5785C16.0253 19.1905 16.0265 21.4213 17.5785 21.4785H18.4574V29.6883C18.5151 31.2428 20.7439 31.2416 20.8011 29.6883V21.4785Z" fill="#0E1124"/>
<path d="M30.9687 29.6889V22.6518C30.7914 17.9893 24.1132 17.9928 23.9375 22.6518V29.6889C23.9952 31.2434 26.224 31.2422 26.2812 29.6889V27.3431H28.6249V29.6889C28.6826 31.2433 30.9115 31.2421 30.9687 29.6889ZM28.6249 24.9974H26.2812V22.6518C26.3404 21.0977 28.5664 21.0989 28.6249 22.6518V24.9974Z" fill="#0E1124"/>
<path d="M37.5008 30.8621C37.6577 30.8621 37.8171 30.8303 37.9699 30.7634C38.563 30.5037 38.8332 29.8122 38.5739 29.2188L36.7285 24.9972L38.5737 20.7762C38.8332 20.1827 38.5628 19.4912 37.9699 19.2317C37.377 18.9716 36.686 19.2423 36.4267 19.836L35.4496 22.0712L34.4725 19.836C34.2128 19.2423 33.522 18.9721 32.9291 19.2315C32.336 19.4912 32.0658 20.1827 32.3251 20.7762L34.1704 24.9976L32.3251 29.2189C32.0657 29.8124 32.336 30.5039 32.929 30.7634C33.5075 31.0212 34.2125 30.7586 34.4722 30.159L35.4494 27.9237L36.4265 30.159C36.6192 30.5995 37.0494 30.8621 37.5008 30.8621Z" fill="#0E1124"/>
<path d="M34.2773 35.5527C35.8305 35.495 35.8293 33.2643 34.2773 33.207H30.1758C29.5287 33.207 29.0039 33.7322 29.0039 34.3799V43.7626C29.0039 44.4103 29.5287 44.9355 30.1758 44.9355H34.2773C35.8305 44.8778 35.8293 42.647 34.2773 42.5898H31.3476V40.2441H33.0615C34.6147 40.1864 34.6135 37.9556 33.0615 37.8984H31.3476V35.5527H34.2773Z" fill="#0E1124"/>
<path d="M25.998 39.8109C29.1505 38.0793 27.9619 33.2313 24.3164 33.2031H21.9726C21.3255 33.2031 20.8008 33.7283 20.8008 34.376V43.759C20.8584 45.3134 23.0873 45.3123 23.1445 43.759V40.2402H23.5922L25.612 44.2835C25.9025 44.8687 26.6177 45.0949 27.1841 44.8081C27.763 44.5184 27.9976 43.8138 27.7083 43.2346L25.998 39.8109ZM23.1446 35.5489H24.3165C25.8608 35.6069 25.8721 37.8186 24.3309 37.8944C24.3177 37.8943 24.3043 37.8943 24.2911 37.8946H23.1446V35.5489Z" fill="#0E1124"/>
<path d="M18.457 33.207H14.3555C13.7084 33.207 13.1836 33.7322 13.1836 34.3799V43.7626C13.2412 45.3171 15.4701 45.3159 15.5273 43.7626V40.2441H17.2412C18.7943 40.1864 18.7932 37.9556 17.2412 37.8984H15.5273V35.5527H18.457C20.01 35.4949 20.0089 33.2641 18.457 33.207Z" fill="#0E1124"/>
<path d="M41.8945 35.5527C43.4477 35.495 43.4465 33.2643 41.8945 33.207H37.793C37.1459 33.207 36.6211 33.7322 36.6211 34.3799V43.7626C36.6211 44.4103 37.1459 44.9355 37.793 44.9355H41.8945C43.4477 44.8778 43.4465 42.647 41.8945 42.5898H38.9648V40.2441H40.6787C42.2318 40.1864 42.2307 37.9556 40.6787 37.8984H38.9648V35.5527H41.8945Z" fill="#0E1124"/>
<path d="M59.3909 6.61221C60.3173 4.24247 60.1829 2.29239 59.0125 1.12095C57.8421 -0.0503719 55.8935 -0.185132 53.5259 0.742236C51.4712 1.54681 49.2447 3.08581 47.2564 5.07578C46.0412 6.2919 44.9876 7.60537 44.1659 8.92318C25.9997 -4.0581 -0.215458 9.52051 0.001336 32.0338C0.00121881 47.5544 12.6178 60.1818 28.1258 60.1818C50.6186 60.3958 64.1877 34.164 51.2181 15.9821C52.5116 15.1741 53.8232 14.1258 55.061 12.8869C57.0493 10.8968 58.587 8.66844 59.3909 6.61221ZM53.9067 32.0335C52.6106 66.2165 3.63622 66.2084 2.34494 32.0331C2.34213 8.17643 32.2997 -2.73513 47.6146 15.1597C47.2427 15.2886 46.8877 15.3807 46.5556 15.4329C46.3752 15.0222 46.1171 14.6377 45.7816 14.3018C44.329 12.848 41.9653 12.848 40.5126 14.3018C39.0599 15.7557 39.0599 18.1213 40.5126 19.5753C41.9652 21.0292 44.3289 21.0292 45.7816 19.5753C46.2959 19.0605 46.6281 18.4314 46.7782 17.769C47.5141 17.6664 48.3059 17.4331 49.1274 17.0837C52.1356 21.3042 53.9067 26.4656 53.9067 32.0335ZM44.1244 17.9165C43.5855 18.4558 42.7088 18.4558 42.1699 17.9165C41.631 17.3773 41.631 16.4998 42.1699 15.9605C42.7088 15.4211 43.5854 15.4211 44.1244 15.9605C44.6633 16.4998 44.6633 17.3774 44.1244 17.9165ZM49.7914 14.1041C48.6612 12.7384 47.4049 11.481 46.0404 10.3499C46.7817 9.12245 47.7641 7.88486 48.9137 6.73442C50.6784 4.96811 52.6195 3.61582 54.3798 2.92654C55.764 2.38445 56.9042 2.32804 57.3553 2.77958C59.0064 5.0128 53.8605 11.8436 49.7914 14.1041Z" fill="#0E1124"/>
</g>
<defs>
<clipPath id="clip0_1308_8289">
<rect width="60" height="60.0503" fill="white" transform="translate(0 0.132812)"/>
</clipPath>
</defs>
</svg>
