<svg width="48" height="48" viewBox="0 0 48 48" fill="none" xmlns="http://www.w3.org/2000/svg">
<g clip-path="url(#clip0_1308_8171)">
<path fill-rule="evenodd" clip-rule="evenodd" d="M41.1133 34.0277H13.5645V39.7669C13.5645 40.8177 14.4267 41.68 15.4775 41.68H37.4783L44.1742 45.5062V41.68H46.0873C47.1388 41.68 48.0003 40.8191 48.0003 39.7669V12.9834C48.0003 11.9311 47.1393 11.0703 46.0873 11.0703H43.0263V32.1147C43.0264 33.1657 42.1643 34.0277 41.1133 34.0277Z" fill="#FEDE65"/>
<path fill-rule="evenodd" clip-rule="evenodd" d="M13.7441 13.5715H20.3079C20.3079 9.9465 17.3692 7.00781 13.7441 7.00781V13.5715Z" fill="#FEDE65"/>
<path d="M41.1128 2.48438H2.85056C1.27875 2.48438 0 3.76312 0 5.33494V32.1184C0 33.6903 1.27875 34.969 2.85056 34.969H3.82622V37.8577C3.82622 38.1918 4.00406 38.5008 4.29309 38.6685C4.58212 38.8362 4.93866 38.8373 5.22872 38.6716L11.7084 34.9689H41.1128C42.6847 34.9689 43.9633 33.6901 43.9633 32.1183V5.33494C43.9634 3.76312 42.6847 2.48438 41.1128 2.48438ZM42.0884 32.1184C42.0884 32.6473 41.6416 33.094 41.1128 33.094H11.4596C11.2965 33.094 11.1362 33.1366 10.9945 33.2175L5.70122 36.2423V34.0315C5.70122 33.5138 5.28141 33.094 4.76372 33.094H2.85056C2.31262 33.094 1.875 32.6563 1.875 32.1184V5.33494C1.875 4.797 2.31262 4.35937 2.85056 4.35937H41.1128C41.6508 4.35937 42.0884 4.797 42.0884 5.33494V32.1184Z" fill="#0E1124"/>
<path d="M32.0615 23C30.4897 23 29.2109 24.2788 29.2109 25.8506V29.6767C29.2571 30.9192 31.0402 30.9183 31.0859 29.6767V28.701H33.0372V29.6767C33.0833 30.9192 34.8664 30.9183 34.9122 29.6767V25.8506C34.9122 24.2788 33.6334 23 32.0615 23ZM33.0372 26.8261H31.0859V25.8507C31.1351 24.5578 32.9885 24.5589 33.0372 25.8507V26.8261Z" fill="#0E1124"/>
<path d="M40.6702 23.1279C40.2229 22.8669 39.6488 23.0181 39.388 23.4653L38.5238 24.9467L37.6596 23.4653C37.3989 23.0183 36.8251 22.8672 36.3774 23.1279C35.9301 23.3887 35.7791 23.9628 36.04 24.4101L37.4384 26.8073L36.04 29.2045C35.7791 29.6518 35.9301 30.2259 36.3774 30.4867C36.8169 30.7454 37.3972 30.6006 37.6596 30.1493L38.5238 28.6679L39.388 30.1493C39.6504 30.6006 40.2306 30.7452 40.6702 30.4867C41.1175 30.2259 41.2685 29.6518 41.0076 29.2045L39.6092 26.8073L41.0076 24.4101C41.2685 23.9628 41.1174 23.3887 40.6702 23.1279Z" fill="#0E1124"/>
<path d="M27.2796 23H23.9316C22.689 23.0461 22.6899 24.8292 23.9316 24.875H24.668V29.6768C24.7141 30.9193 26.4972 30.9184 26.543 29.6768V24.875H27.2795C28.5221 24.8289 28.5212 23.0457 27.2796 23Z" fill="#0E1124"/>
<path d="M20.0693 26.3982H17.12L14.6197 22.0674C16.1779 20.844 17.1806 18.9437 17.1806 16.8135C17.1806 16.2958 16.7608 15.876 16.2431 15.876H11.4413V11.0742C11.4413 10.5565 11.0214 10.1367 10.5038 10.1367C6.8221 10.1367 3.82697 13.1318 3.82697 16.8135C3.75375 21.4628 8.72925 24.8085 12.9973 23.0074L15.7669 27.8044C15.9343 28.0944 16.2439 28.2731 16.5788 28.2731H20.0693C21.3118 28.227 21.3109 26.4439 20.0693 26.3982ZM5.70197 16.8135C5.70197 14.4866 7.36584 12.5409 9.56625 12.1037V16.4252L6.51188 19.4797C6.00056 18.7164 5.70197 17.7992 5.70197 16.8135ZM7.83778 20.8055L10.8922 17.751H15.2138C14.6156 21.0335 10.6124 22.7288 7.83778 20.8055Z" fill="#0E1124"/>
<path d="M24.9316 12.0117H36.9961C38.2386 11.9656 38.2377 10.1825 36.9961 10.1367H24.9316C23.689 10.1828 23.6899 11.966 24.9316 12.0117Z" fill="#0E1124"/>
<path d="M24.9316 15.875H36.9961C38.2386 15.8289 38.2377 14.0457 36.9961 14H24.9316C23.689 14.0461 23.6899 15.8292 24.9316 15.875Z" fill="#0E1124"/>
<path d="M27.9316 19.875H33.9638C35.2064 19.8289 35.2054 18.0457 33.9638 18H27.9316C26.689 18.0461 26.6899 19.8292 27.9316 19.875Z" fill="#0E1124"/>
</g>
<defs>
<clipPath id="clip0_1308_8171">
<rect width="48" height="48" fill="white"/>
</clipPath>
</defs>
</svg>
