<svg width="48" height="48" viewBox="0 0 48 48" fill="none" xmlns="http://www.w3.org/2000/svg">
<path d="M30.5805 17.0719C30.5805 13.4438 27.6367 10.4906 23.9992 10.5C20.3711 10.5 17.418 13.4438 17.418 17.0813C17.418 20.7188 20.3617 23.6531 23.9992 23.6531C27.6273 23.6438 30.5711 20.7 30.5805 17.0719ZM19.293 17.0719C19.293 14.475 21.4023 12.375 23.9992 12.375C26.5961 12.375 28.7055 14.4844 28.7055 17.0813C28.7055 19.6781 26.5961 21.7688 23.9992 21.7688C21.4023 21.7688 19.3023 19.6688 19.293 17.0719Z" fill="#0E1124"/>
<path d="M33.9945 24.5903C34.1352 24.4309 34.257 24.2528 34.3414 24.0559C34.5758 23.5496 34.5852 22.959 34.3695 22.4434L33.432 20.1278L35.5508 18.8059C36.5164 18.2059 36.7977 16.9309 36.1977 15.9653C36.0289 15.7028 35.8133 15.4778 35.5508 15.3184L33.432 13.9965L34.3695 11.6809C34.7914 10.6309 34.2852 9.43089 33.2258 9.00901C32.9352 8.89651 32.6258 8.84026 32.3164 8.86839L29.8227 9.04651L29.2227 6.62776C28.9508 5.53089 27.8352 4.85589 26.7383 5.12776C26.4289 5.20276 26.1477 5.34339 25.9039 5.54964L24.0008 7.15276L22.0883 5.54964C21.2258 4.81839 19.9227 4.93089 19.1914 5.79339C18.9852 6.03714 18.8445 6.31839 18.7695 6.62776L18.1695 9.04651L15.6758 8.86839C14.5414 8.79339 13.5664 9.63714 13.482 10.7715C13.4633 11.0809 13.5102 11.3903 13.6227 11.6809L14.5602 13.9965L12.4414 15.3184C11.4758 15.9184 11.1852 17.1934 11.7852 18.1496C11.9539 18.4121 12.1695 18.6371 12.4414 18.8059L14.5602 20.1278L13.6227 22.4434C13.407 22.959 13.4164 23.5403 13.6508 24.0559C13.7352 24.2528 13.857 24.4309 13.9977 24.5903L8.49453 37.6309C8.29766 38.109 8.51328 38.6621 8.99141 38.859C9.22578 38.9621 9.49765 38.9528 9.73203 38.859L15.6758 36.2621L17.9633 42.3278C18.0945 42.684 18.4414 42.9278 18.8258 42.9371H18.8445C19.2195 42.9371 19.557 42.7121 19.707 42.3653L24.0008 32.2121L28.2852 42.3653C28.4352 42.7121 28.7727 42.9371 29.1477 42.9371H29.1664C29.5508 42.9278 29.8883 42.6934 30.0289 42.3278L32.3164 36.2621L38.2602 38.859C38.7383 39.0653 39.2914 38.8496 39.4977 38.3715C39.6008 38.1371 39.6008 37.8653 39.4977 37.6309L33.9945 24.5903ZM18.9008 39.4778L17.0914 34.6778C16.9039 34.1903 16.3695 33.9465 15.882 34.134C15.8633 34.1434 15.8539 34.1434 15.8352 34.1528L11.1383 36.2059L15.7508 25.2653L18.1695 25.0965L18.7695 27.5246C18.9383 28.2184 19.4539 28.7715 20.1383 28.9871C20.3445 29.0528 20.5602 29.0903 20.7758 29.0903C21.2539 29.0903 21.7227 28.9215 22.0883 28.6028L22.3695 28.3684L22.9789 29.8121L18.9008 39.4778ZM20.8789 27.159C20.832 27.1965 20.7664 27.2153 20.7102 27.1871C20.6539 27.1684 20.607 27.1215 20.5883 27.0559L19.8008 23.8684C19.6977 23.4465 19.3227 23.1559 18.8914 23.1559C18.8727 23.1559 18.8445 23.1559 18.8258 23.1559L15.5539 23.3903C15.5352 23.3903 15.5164 23.3903 15.4883 23.3903L15.4695 23.3809C15.4227 23.3621 15.3852 23.3246 15.3664 23.2871C15.3477 23.2403 15.3477 23.1934 15.3664 23.1465L16.5945 20.109C16.7633 19.6871 16.6039 19.1996 16.2195 18.9653L13.4352 17.2309C13.3789 17.1934 13.3508 17.1371 13.3508 17.0715C13.3508 17.0059 13.3789 16.9496 13.4352 16.9215L16.2195 15.1778C16.6039 14.934 16.7633 14.4559 16.5945 14.034L15.3664 10.9871C15.3289 10.8934 15.3758 10.7903 15.4695 10.7528C15.4977 10.7434 15.5164 10.7434 15.5445 10.7434L18.8258 10.9684C19.2758 10.9965 19.6883 10.6965 19.8008 10.2559L20.5883 7.06839C20.5977 7.00276 20.6445 6.95589 20.7102 6.93714C20.7664 6.91839 20.832 6.92776 20.8789 6.97464L23.3914 9.09339C23.7383 9.38401 24.2539 9.38401 24.6008 9.09339L27.1227 6.97464C27.1695 6.93714 27.2352 6.91839 27.2914 6.93714C27.3477 6.95589 27.3945 7.00276 27.4133 7.06839L28.2008 10.2559C28.3133 10.6965 28.7258 10.9965 29.1758 10.9684L32.457 10.7434C32.5602 10.734 32.6445 10.809 32.6445 10.9121C32.6445 10.9403 32.6445 10.959 32.6352 10.9871L31.407 14.034C31.2383 14.4559 31.3977 14.9434 31.782 15.1778L34.5664 16.9215C34.6227 16.9496 34.6508 17.0059 34.6508 17.0715C34.6508 17.1371 34.6227 17.1934 34.5664 17.2309L31.7727 18.9653C31.3883 19.209 31.2289 19.6871 31.3977 20.109L32.6352 23.1559C32.6539 23.2028 32.6539 23.2496 32.6352 23.2965C32.6164 23.3434 32.5789 23.3809 32.532 23.3903L32.5133 23.3996C32.4945 23.409 32.4758 23.409 32.4477 23.3996L29.1758 23.1653C28.7164 23.1371 28.3133 23.4278 28.2008 23.8778L27.4133 27.0653C27.3945 27.1309 27.357 27.1778 27.2914 27.1965C27.2352 27.2153 27.1695 27.2059 27.1227 27.159L24.6102 25.0403C24.2633 24.7496 23.7477 24.7496 23.4008 25.0403L20.8789 27.159ZM32.157 34.1528C31.6789 33.9465 31.1258 34.1621 30.9195 34.6403C30.9102 34.659 30.9102 34.6684 30.9008 34.6871L29.0914 39.4871L24.9008 29.559L23.8695 27.1121L24.0008 27.009L25.9133 28.5934C26.7852 29.3246 28.0789 29.2121 28.8102 28.3403C29.0164 28.0965 29.157 27.8153 29.232 27.5153L29.832 25.0871L32.2508 25.2559L36.8633 36.1871L32.157 34.1528Z" fill="#0E1124"/>
<circle cx="24" cy="17" r="7" fill="#FEDE65"/>
<circle cx="24" cy="17" r="4" fill="#0E1124"/>
</svg>
