<svg width="32" height="32" viewBox="0 0 32 32" fill="none" xmlns="http://www.w3.org/2000/svg">
<g opacity="0.8">
<path d="M11.1172 16H6.23438V12.0938C6.23438 9.93919 7.98606 8.1875 10.1406 8.1875H10.6289C10.8214 8.18796 11.0121 8.15039 11.19 8.07693C11.3679 8.00348 11.5296 7.8956 11.6657 7.75948C11.8018 7.62336 11.9097 7.46169 11.9832 7.28375C12.0566 7.10582 12.0942 6.91512 12.0938 6.72263V3.79294C12.0942 3.60044 12.0566 3.40974 11.9832 3.23181C11.9097 3.05387 11.8018 2.8922 11.6657 2.75608C11.5296 2.61997 11.3679 2.51208 11.19 2.43863C11.0121 2.36518 10.8214 2.3276 10.6289 2.32806H10.1406C4.74512 2.32806 0.375 6.69819 0.375 12.0937V26.7422C0.375 28.3596 1.68725 29.6719 3.30469 29.6719H11.1172C12.7346 29.6719 14.0469 28.3596 14.0469 26.7422V18.9297C14.0469 17.3123 12.7346 16 11.1172 16ZM28.6953 16H23.8125V12.0938C23.8125 9.93919 25.5642 8.1875 27.7188 8.1875H28.207C28.3995 8.18796 28.5902 8.15039 28.7681 8.07693C28.9461 8.00348 29.1077 7.8956 29.2439 7.75948C29.38 7.62336 29.4879 7.46169 29.5613 7.28375C29.6348 7.10582 29.6723 6.91512 29.6719 6.72263V3.79294C29.6723 3.60044 29.6348 3.40974 29.5613 3.23181C29.4879 3.05387 29.38 2.8922 29.2439 2.75608C29.1077 2.61997 28.9461 2.51208 28.7681 2.43863C28.5902 2.36518 28.3995 2.3276 28.207 2.32806H27.7188C22.3232 2.32806 17.9531 6.69819 17.9531 12.0937V26.7422C17.9531 28.3596 19.2654 29.6719 20.8828 29.6719H28.6953C30.3127 29.6719 31.625 28.3596 31.625 26.7422V18.9297C31.625 17.3123 30.3127 16 28.6953 16Z" fill="#0E1124"/>
</g>
</svg>
