<svg width="32" height="32" viewBox="0 0 32 32" fill="none" xmlns="http://www.w3.org/2000/svg">
<path d="M15.9987 2.66406C13.1697 2.66406 10.4566 3.78787 8.45623 5.78826C6.45584 7.78865 5.33203 10.5018 5.33203 13.3307C5.33203 20.5307 14.732 28.6641 15.132 29.0107C15.3735 29.2173 15.6809 29.3308 15.9987 29.3308C16.3165 29.3308 16.6239 29.2173 16.8654 29.0107C17.332 28.6641 26.6654 20.5307 26.6654 13.3307C26.6654 10.5018 25.5416 7.78865 23.5412 5.78826C21.5408 3.78787 18.8277 2.66406 15.9987 2.66406ZM15.9987 26.1974C13.1587 23.5307 7.9987 17.7841 7.9987 13.3307C7.9987 11.209 8.84155 9.17417 10.3418 7.67388C11.8421 6.17358 13.877 5.33073 15.9987 5.33073C18.1204 5.33073 20.1553 6.17358 21.6556 7.67388C23.1558 9.17417 23.9987 11.209 23.9987 13.3307C23.9987 17.7841 18.8387 23.5441 15.9987 26.1974ZM15.9987 7.9974C14.9439 7.9974 13.9127 8.31019 13.0357 8.89622C12.1586 9.48226 11.475 10.3152 11.0713 11.2898C10.6677 12.2643 10.5621 13.3366 10.7678 14.3712C10.9736 15.4058 11.4816 16.3561 12.2275 17.102C12.9733 17.8478 13.9237 18.3558 14.9582 18.5616C15.9928 18.7674 17.0651 18.6618 18.0397 18.2581C19.0142 17.8544 19.8472 17.1708 20.4332 16.2938C21.0192 15.4167 21.332 14.3856 21.332 13.3307C21.332 11.9162 20.7701 10.5597 19.7699 9.55949C18.7697 8.5593 17.4132 7.9974 15.9987 7.9974ZM15.9987 15.9974C15.4713 15.9974 14.9557 15.841 14.5172 15.548C14.0786 15.255 13.7369 14.8385 13.535 14.3512C13.3332 13.8639 13.2804 13.3278 13.3833 12.8105C13.4862 12.2932 13.7401 11.8181 14.1131 11.4451C14.486 11.0722 14.9612 10.8182 15.4785 10.7153C15.9957 10.6124 16.5319 10.6652 17.0192 10.8671C17.5065 11.0689 17.9229 11.4107 18.216 11.8492C18.509 12.2877 18.6654 12.8033 18.6654 13.3307C18.6654 14.038 18.3844 14.7163 17.8843 15.2163C17.3842 15.7164 16.7059 15.9974 15.9987 15.9974Z" fill="#0E1124"/>
</svg>
