<svg width="32" height="32" viewBox="0 0 32 32" fill="none" xmlns="http://www.w3.org/2000/svg">
<path d="M23.4492 20.93C23.1705 20.6504 22.8393 20.4284 22.4746 20.277C22.11 20.1256 21.719 20.0477 21.3242 20.0477C20.9293 20.0477 20.5384 20.1256 20.1737 20.277C19.8091 20.4284 19.4779 20.6504 19.1992 20.93L17.7492 22.38C16.1166 21.3439 14.604 20.1298 13.2392 18.76C11.8723 17.3926 10.6585 15.8804 9.61919 14.25L11.0692 12.8C11.3489 12.5213 11.5708 12.1901 11.7222 11.8255C11.8736 11.4608 11.9516 11.0699 11.9516 10.675C11.9516 10.2802 11.8736 9.88923 11.7222 9.52457C11.5708 9.15992 11.3489 8.82874 11.0692 8.55003L8.23919 5.73003C7.96441 5.44942 7.63603 5.22692 7.27356 5.07575C6.91108 4.92457 6.52191 4.84781 6.12919 4.85003C5.73367 4.84906 5.34186 4.92631 4.97631 5.07734C4.61076 5.22836 4.27868 5.45018 3.99919 5.73003L2.63919 7.08003C1.99096 7.777 1.50716 8.61038 1.22335 9.5189C0.939544 10.4274 0.862946 11.388 0.999186 12.33C1.31919 16.08 3.77919 20.59 7.56919 24.39C11.3592 28.19 15.9192 30.64 19.6692 31C19.949 31.015 20.2294 31.015 20.5092 31C21.3164 31.0339 22.1223 30.9063 22.8796 30.6247C23.6368 30.3431 24.3302 29.9131 24.9192 29.36L26.2692 28C26.549 27.7205 26.7709 27.3885 26.9219 27.0229C27.0729 26.6574 27.1502 26.2655 27.1492 25.87C27.1514 25.4773 27.0746 25.0881 26.9235 24.7257C26.7723 24.3632 26.5498 24.0348 26.2692 23.76L23.4492 20.93ZM24.8592 26.59L23.4992 27.94C22.9963 28.3591 22.4093 28.6653 21.7779 28.8378C21.1464 29.0103 20.4853 29.0452 19.8392 28.94C16.5892 28.66 12.4492 26.36 9.02919 22.94C5.60919 19.52 3.30919 15.41 2.99919 12.16C2.89135 11.5139 2.9249 10.8522 3.09754 10.2203C3.27018 9.58843 3.5778 9.00152 3.99919 8.50003L5.40919 7.14003C5.50263 7.04735 5.61344 6.97402 5.73528 6.92426C5.85712 6.87449 5.98758 6.84927 6.11919 6.85003C6.25079 6.84927 6.38126 6.87449 6.50309 6.92426C6.62493 6.97402 6.73575 7.04735 6.82919 7.14003L9.65919 10C9.84544 10.1874 9.94998 10.4408 9.94998 10.705C9.94998 10.9692 9.84544 11.2227 9.65919 11.41L7.65919 13.41C7.50268 13.5658 7.40212 13.7689 7.37318 13.9878C7.34423 14.2067 7.38854 14.429 7.49919 14.62C8.69658 16.6585 10.1519 18.534 11.8292 20.2C13.4953 21.8773 15.3707 23.3326 17.4092 24.53C17.6002 24.6407 17.8225 24.685 18.0414 24.656C18.2603 24.6271 18.4635 24.5265 18.6192 24.37L20.6192 22.37C20.8065 22.1838 21.06 22.0792 21.3242 22.0792C21.5884 22.0792 21.8418 22.1838 22.0292 22.37L24.8592 25.2C24.9519 25.2935 25.0252 25.4043 25.075 25.5261C25.1247 25.648 25.1499 25.7784 25.1492 25.91C25.1429 26.1654 25.0392 26.4087 24.8592 26.59ZM26.5992 5.39003C25.2094 3.995 23.5573 2.88887 21.738 2.13541C19.9187 1.38196 17.9683 0.996078 15.9992 1.00003C15.734 1.00003 15.4796 1.10539 15.2921 1.29292C15.1045 1.48046 14.9992 1.73481 14.9992 2.00003C14.9992 2.26525 15.1045 2.5196 15.2921 2.70714C15.4796 2.89467 15.734 3.00003 15.9992 3.00003C17.7157 2.99997 19.4152 3.33983 20.9996 4.00001C22.5841 4.66019 24.0221 5.62761 25.2307 6.84645C26.4393 8.06529 27.3946 9.51141 28.0414 11.1014C28.6882 12.6913 29.0137 14.3936 28.9992 16.11C28.9992 16.3752 29.1045 16.6296 29.2921 16.8171C29.4796 17.0047 29.734 17.11 29.9992 17.11C30.2644 17.11 30.5188 17.0047 30.7063 16.8171C30.8938 16.6296 30.9992 16.3752 30.9992 16.11C31.0183 14.12 30.6389 12.1462 29.8832 10.3051C29.1275 8.46399 28.0109 6.79279 26.5992 5.39003Z" fill="#0E1124"/>
<path d="M20.9097 11.1103C21.4772 11.6744 21.9262 12.3463 22.2301 13.0865C22.5341 13.8267 22.687 14.6202 22.6797 15.4203C22.6797 15.6855 22.785 15.9399 22.9726 16.1274C23.1601 16.315 23.4145 16.4203 23.6797 16.4203C23.9449 16.4203 24.1993 16.315 24.3868 16.1274C24.5743 15.9399 24.6797 15.6855 24.6797 15.4203C24.6929 14.3614 24.4958 13.3103 24.0997 12.3281C23.7036 11.3459 23.1164 10.4522 22.3722 9.6987C21.628 8.94521 20.7416 8.34698 19.7644 7.9387C18.7872 7.53042 17.7387 7.32023 16.6797 7.32031C16.4145 7.32031 16.1601 7.42567 15.9726 7.61321C15.785 7.80074 15.6797 8.0551 15.6797 8.32031C15.6797 8.58553 15.785 8.83988 15.9726 9.02742C16.1601 9.21496 16.4145 9.32031 16.6797 9.32031C17.4678 9.32625 18.247 9.48739 18.9728 9.79452C19.6985 10.1017 20.3567 10.5488 20.9097 11.1103Z" fill="#0E1124"/>
</svg>
