<svg width="16" height="16" viewBox="0 0 16 16" fill="none" xmlns="http://www.w3.org/2000/svg">
<g clip-path="url(#clip0_1308_6990)">
<path fill-rule="evenodd" clip-rule="evenodd" d="M8.49794 3.4975V3.997C8.48894 4.44 7.77244 4.6925 7.54594 4.2085C7.51578 4.14202 7.49977 4.07 7.49894 3.997V3.4975H6.00094C5.61644 3.479 5.35894 2.9765 5.62344 2.671C5.71444 2.566 5.78794 2.509 6.00094 2.4985C6.49994 2.4985 6.99944 2.497 7.49894 2.494V1.9995C7.49762 1.94624 7.50609 1.8932 7.52394 1.843C7.58994 1.6425 7.78744 1.5 8.00844 1.5C8.27494 1.5105 8.49194 1.71 8.49794 1.9995V2.488C9.49644 2.482 10.4954 2.4765 11.4944 2.4815V1.9995C11.4994 1.7325 11.6944 1.5115 11.9839 1.5H12.0034C12.2704 1.5105 12.4874 1.71 12.4929 1.9995V2.4905L13.0294 2.499C13.7949 2.523 14.4759 3.1815 14.4904 3.9785C14.5094 6.987 14.5094 9.996 14.4904 13.005C14.4764 13.7775 13.8079 14.4695 13.0109 14.4845C9.66944 14.505 6.32744 14.505 2.98594 14.4845C2.21644 14.47 1.52144 13.815 1.50644 13.005C1.48744 9.996 1.48744 6.987 1.50644 3.9785C1.52044 3.2005 2.18694 2.504 3.00294 2.4985H3.50394V1.9995C3.50236 1.94623 3.51084 1.89313 3.52894 1.843C3.59494 1.6425 3.79244 1.5 4.01294 1.5C4.27994 1.5105 4.49694 1.71 4.50244 1.9995V3.997C4.49394 4.4395 3.79794 4.6875 3.55944 4.2265C3.52352 4.15529 3.50452 4.07675 3.50394 3.997V3.4955C3.33327 3.49417 3.16259 3.49483 2.99194 3.4975C2.73844 3.5055 2.51294 3.7275 2.50494 3.9845C2.44919 6.98891 2.44919 9.99409 2.50494 12.9985C2.51294 13.2525 2.73494 13.4775 2.99194 13.4855C6.32932 13.5475 9.66756 13.5475 13.0049 13.4855C13.2584 13.4775 13.4839 13.2555 13.4919 12.9985C13.5474 9.9945 13.5474 6.9885 13.4919 3.9845C13.4844 3.85541 13.4288 3.73382 13.336 3.64369C13.2433 3.55355 13.1202 3.5014 12.9909 3.4975H12.4929V3.997C12.4844 4.4355 11.7864 4.683 11.5499 4.2265C11.5143 4.15521 11.4953 4.07672 11.4944 3.997V3.4975H8.49794ZM4.00294 11.488C4.0699 11.4859 4.1366 11.4972 4.19908 11.5214C4.26156 11.5456 4.31855 11.582 4.36667 11.6287C4.41478 11.6753 4.45303 11.7311 4.47916 11.7928C4.50528 11.8544 4.51875 11.9208 4.51875 11.9878C4.51875 12.0547 4.50528 12.121 4.47916 12.1827C4.45303 12.2444 4.41478 12.3002 4.36667 12.3468C4.31855 12.3935 4.26156 12.4299 4.19908 12.4541C4.1366 12.4783 4.0699 12.4896 4.00294 12.4875C3.87313 12.4834 3.75002 12.4289 3.65965 12.3357C3.56928 12.2424 3.51875 12.1176 3.51875 11.9878C3.51875 11.8579 3.56928 11.7331 3.65965 11.6398C3.75002 11.5466 3.87313 11.4921 4.00294 11.488ZM6.00094 11.488C6.06842 11.485 6.13579 11.4958 6.199 11.5196C6.26221 11.5434 6.31994 11.5798 6.36871 11.6265C6.41748 11.6732 6.45627 11.7294 6.48276 11.7915C6.50924 11.8536 6.52285 11.9205 6.52279 11.988C6.52272 12.0556 6.50897 12.1224 6.48236 12.1845C6.45576 12.2466 6.41685 12.3026 6.36799 12.3492C6.31912 12.3959 6.26132 12.4321 6.19806 12.4558C6.13481 12.4795 6.06741 12.4901 5.99994 12.487C5.87133 12.4811 5.74995 12.4259 5.66107 12.3327C5.57219 12.2396 5.52266 12.1158 5.52279 11.987C5.52292 11.8583 5.5727 11.7346 5.66176 11.6416C5.75083 11.5486 5.87232 11.4936 6.00094 11.488ZM7.99844 11.488C8.12705 11.4938 8.24848 11.5489 8.33745 11.6419C8.42643 11.735 8.47608 11.8588 8.47608 11.9875C8.47608 12.1162 8.42643 12.24 8.33745 12.3331C8.24848 12.4261 8.12705 12.4812 7.99844 12.487C7.86983 12.4812 7.74839 12.4261 7.65942 12.3331C7.57045 12.24 7.52079 12.1162 7.52079 11.9875C7.52079 11.8588 7.57045 11.735 7.65942 11.6419C7.74839 11.5489 7.86983 11.4938 7.99844 11.488ZM4.00294 9.4905C4.06983 9.48838 4.13646 9.49973 4.19889 9.52387C4.26131 9.548 4.31824 9.58444 4.36631 9.63101C4.41437 9.67758 4.45259 9.73333 4.47869 9.79496C4.50479 9.85658 4.51824 9.92282 4.51824 9.98975C4.51824 10.0567 4.50479 10.1229 4.47869 10.1845C4.45259 10.2462 4.41437 10.3019 4.36631 10.3485C4.31824 10.3951 4.26131 10.4315 4.19889 10.4556C4.13646 10.4798 4.06983 10.4911 4.00294 10.489C3.87326 10.4849 3.75027 10.4305 3.66 10.3373C3.56972 10.2441 3.51924 10.1195 3.51924 9.98975C3.51924 9.86001 3.56972 9.73536 3.66 9.64218C3.75027 9.549 3.87326 9.4946 4.00294 9.4905ZM6.00094 9.4905C6.13335 9.4905 6.26033 9.5431 6.35396 9.63673C6.44759 9.73036 6.50019 9.85734 6.50019 9.98975C6.50019 10.1222 6.44759 10.2491 6.35396 10.3428C6.26033 10.4364 6.13335 10.489 6.00094 10.489C5.86853 10.489 5.74154 10.4364 5.64791 10.3428C5.55429 10.2491 5.50169 10.1222 5.50169 9.98975C5.50169 9.85734 5.55429 9.73036 5.64791 9.63673C5.74154 9.5431 5.86853 9.4905 6.00094 9.4905ZM7.99844 9.4905C8.0654 9.48838 8.1321 9.49974 8.19458 9.5239C8.25706 9.54806 8.31405 9.58453 8.36217 9.63115C8.41028 9.67777 8.44853 9.73357 8.47466 9.79526C8.50078 9.85695 8.51425 9.92326 8.51425 9.99025C8.51425 10.0572 8.50078 10.1236 8.47466 10.1852C8.44853 10.2469 8.41028 10.3027 8.36217 10.3493C8.31405 10.396 8.25706 10.4324 8.19458 10.4566C8.1321 10.4808 8.0654 10.4921 7.99844 10.49C7.86863 10.4859 7.74552 10.4314 7.65515 10.3382C7.56478 10.2449 7.51425 10.1201 7.51425 9.99025C7.51425 9.86038 7.56478 9.7356 7.65515 9.64233C7.74552 9.54906 7.86863 9.49461 7.99844 9.4905ZM9.99594 9.4905C10.0629 9.48838 10.1296 9.49974 10.1921 9.5239C10.2546 9.54806 10.3116 9.58453 10.3597 9.63115C10.4078 9.67777 10.446 9.73357 10.4722 9.79526C10.4983 9.85695 10.5117 9.92326 10.5117 9.99025C10.5117 10.0572 10.4983 10.1236 10.4722 10.1852C10.446 10.2469 10.4078 10.3027 10.3597 10.3493C10.3116 10.396 10.2546 10.4324 10.1921 10.4566C10.1296 10.4808 10.0629 10.4921 9.99594 10.49C9.86613 10.4859 9.74302 10.4314 9.65265 10.3382C9.56228 10.2449 9.51175 10.1201 9.51175 9.99025C9.51175 9.86038 9.56228 9.7356 9.65265 9.64233C9.74302 9.54906 9.86613 9.49461 9.99594 9.4905ZM11.9934 9.4905C12.0603 9.48838 12.127 9.49973 12.1894 9.52387C12.2518 9.548 12.3087 9.58444 12.3568 9.63101C12.4049 9.67758 12.4431 9.73333 12.4692 9.79496C12.4953 9.85658 12.5087 9.92282 12.5087 9.98975C12.5087 10.0567 12.4953 10.1229 12.4692 10.1845C12.4431 10.2462 12.4049 10.3019 12.3568 10.3485C12.3087 10.3951 12.2518 10.4315 12.1894 10.4556C12.127 10.4798 12.0603 10.4911 11.9934 10.489C11.8638 10.4849 11.7408 10.4305 11.6505 10.3373C11.5602 10.2441 11.5097 10.1195 11.5097 9.98975C11.5097 9.86001 11.5602 9.73536 11.6505 9.64218C11.7408 9.549 11.8638 9.4946 11.9934 9.4905ZM6.00094 7.493C6.06647 7.493 6.13135 7.50591 6.1919 7.53098C6.25244 7.55606 6.30745 7.59282 6.35378 7.63915C6.40012 7.68549 6.43688 7.7405 6.46195 7.80104C6.48703 7.86158 6.49994 7.92647 6.49994 7.992C6.49994 8.05753 6.48703 8.12242 6.46195 8.18296C6.43688 8.2435 6.40012 8.29851 6.35378 8.34485C6.30745 8.39118 6.25244 8.42794 6.1919 8.45302C6.13135 8.47809 6.06647 8.491 6.00094 8.491C5.86859 8.491 5.74167 8.43843 5.64809 8.34485C5.55451 8.25127 5.50194 8.12434 5.50194 7.992C5.50194 7.85966 5.55451 7.73273 5.64809 7.63915C5.74167 7.54557 5.86859 7.493 6.00094 7.493ZM7.99844 7.493C8.06591 7.48998 8.1333 7.50066 8.19653 7.5244C8.25977 7.54814 8.31754 7.58445 8.36635 7.63113C8.41517 7.67781 8.45402 7.7339 8.48056 7.79601C8.50711 7.85811 8.52079 7.92496 8.52079 7.9925C8.52079 8.06004 8.50711 8.12689 8.48056 8.18899C8.45402 8.2511 8.41517 8.30719 8.36635 8.35387C8.31754 8.40055 8.25977 8.43686 8.19653 8.4606C8.1333 8.48434 8.06591 8.49502 7.99844 8.492C7.86983 8.48624 7.74839 8.4311 7.65942 8.33806C7.57045 8.24502 7.52079 8.12124 7.52079 7.9925C7.52079 7.86376 7.57045 7.73998 7.65942 7.64694C7.74839 7.5539 7.86983 7.49876 7.99844 7.493ZM9.99594 7.493C10.0634 7.48998 10.1308 7.50066 10.194 7.5244C10.2573 7.54814 10.315 7.58445 10.3639 7.63113C10.4127 7.67781 10.4515 7.7339 10.4781 7.79601C10.5046 7.85811 10.5183 7.92496 10.5183 7.9925C10.5183 8.06004 10.5046 8.12689 10.4781 8.18899C10.4515 8.2511 10.4127 8.30719 10.3639 8.35387C10.315 8.40055 10.2573 8.43686 10.194 8.4606C10.1308 8.48434 10.0634 8.49502 9.99594 8.492C9.86733 8.48624 9.7459 8.4311 9.65692 8.33806C9.56795 8.24502 9.51829 8.12124 9.51829 7.9925C9.51829 7.86376 9.56795 7.73998 9.65692 7.64694C9.7459 7.5539 9.86733 7.49876 9.99594 7.493ZM11.9934 7.493C12.1258 7.49293 12.2529 7.54547 12.3465 7.63905C12.4402 7.73263 12.4929 7.85959 12.4929 7.992C12.493 8.12441 12.4405 8.25142 12.3469 8.3451C12.2533 8.43877 12.1263 8.49143 11.9939 8.4915C11.9284 8.49153 11.8634 8.47865 11.8029 8.45359C11.7423 8.42853 11.6872 8.39179 11.6408 8.34545C11.5945 8.29911 11.5577 8.24409 11.5325 8.18354C11.5074 8.12298 11.4945 8.05806 11.4944 7.9925C11.4944 7.92694 11.5073 7.86201 11.5323 7.80143C11.5574 7.74084 11.5942 7.68579 11.6405 7.6394C11.6868 7.59302 11.7418 7.55622 11.8024 7.5311C11.863 7.50598 11.9279 7.49303 11.9934 7.493Z" fill="#0E1124"/>
</g>
<defs>
<clipPath id="clip0_1308_6990">
<rect width="16" height="16" fill="white"/>
</clipPath>
</defs>
</svg>
