<svg width="48" height="48" viewBox="0 0 48 48" fill="none" xmlns="http://www.w3.org/2000/svg">
<path d="M41.2478 39.7333C41.2478 38.7845 40.8532 37.9113 40.2146 37.2902C40.8532 36.669 41.2478 35.796 41.2478 34.8471C41.2478 33.6766 40.6474 32.6215 39.7292 32.0123C40.1616 31.4387 40.4171 30.7243 40.4171 29.9608C40.4171 28.0967 38.9241 26.5802 37.0932 26.5802L32.4622 26.5589C31.4826 26.5531 30.6855 25.7565 30.6855 24.7831V19.8002C30.6855 17.7339 29.0135 16.0527 26.9582 16.0527C24.9029 16.0527 23.2309 17.7339 23.2309 19.8002V24.7259C23.2309 25.7011 22.4324 26.4978 21.448 26.5018C18.5881 26.5224 16.2669 28.8743 16.2739 31.7462L16.2759 32.256H11.956V30.9874C11.956 30.4697 11.5363 30.0499 11.0185 30.0499H3.30469C2.78691 30.0499 2.36719 30.4697 2.36719 30.9874V44.7301C2.36719 45.2478 2.78691 45.6676 3.30469 45.6676H11.0185C11.5363 45.6676 11.956 45.2478 11.956 44.7301V43.4615H16.5502C16.8445 44.439 17.3728 45.3368 18.1086 46.0877C19.3167 47.321 20.9311 48.0001 22.6543 48.0001H37.0411C38.8449 48.0001 40.3614 46.5361 40.4216 44.7366C40.4489 43.9231 40.193 43.1637 39.739 42.5615C40.6516 41.9514 41.2478 40.8997 41.2478 39.7333ZM4.24219 43.7926V31.9251H10.081V43.7926H4.24219ZM38.1211 38.242C38.8346 38.344 39.3728 38.9851 39.3728 39.7333C39.3728 40.4695 38.8518 41.1021 38.1554 41.2194L37.3758 41.2642C36.8949 41.2917 36.5133 41.6793 36.4928 42.1605C36.4725 42.6417 36.82 43.0601 37.2968 43.1282C38.036 43.2339 38.5736 43.8984 38.5477 44.674C38.5209 45.4741 37.8451 46.1251 37.0412 46.1251H22.6543C21.4392 46.1251 20.3005 45.6459 19.4479 44.7755C18.6356 43.9465 18.1808 42.864 18.1548 41.7085V41.4879C18.1548 40.9739 17.7409 40.5557 17.2269 40.5505C17.2237 40.5504 17.2205 40.5504 17.2172 40.5504C16.7077 40.5504 16.2906 40.9581 16.2801 41.4686C16.2793 41.508 16.2788 41.5472 16.2787 41.5865H11.9561V34.1313H17.2174C17.4667 34.1313 17.7057 34.0319 17.8816 33.8554C18.0576 33.6787 18.1558 33.4393 18.1549 33.19L18.1489 31.7403C18.1445 29.8989 19.6305 28.3901 21.4586 28.377C23.4697 28.3688 25.1059 26.731 25.1059 24.7261V19.8004C25.1059 18.7679 25.9368 17.9279 26.9582 17.9279C27.9796 17.9279 28.8105 18.7679 28.8105 19.8004V24.7833C28.8105 26.7847 30.4437 28.4223 32.4524 28.4341L37.089 28.4554C37.8903 28.4554 38.5422 29.1308 38.5422 29.961C38.5422 30.7092 38.0041 31.3504 37.2905 31.4524C36.8136 31.5205 36.4659 31.939 36.4864 32.4203C36.5069 32.9016 36.8887 33.289 37.3698 33.3164L38.1557 33.3613C38.8522 33.4786 39.3729 34.1111 39.3729 34.8474C39.3729 35.5955 38.8348 36.2366 38.1212 36.3386C37.6594 36.4046 37.3163 36.8002 37.3163 37.2667V37.314C37.3162 37.7804 37.6594 38.176 38.1211 38.242Z" fill="#0E1124"/>
<path d="M40.267 16.0567L38.1138 16.9651C37.3123 17.3032 36.4375 16.6703 36.5128 15.8067L36.715 13.4868L35.1821 11.7282C34.6114 11.0735 34.9456 10.0495 35.7936 9.85395L38.0717 9.32857L39.2776 7.33338C39.7264 6.5907 40.8077 6.5907 41.2565 7.33338L42.4623 9.32857L44.7405 9.85395C45.5885 10.0495 45.9227 11.0736 45.352 11.7282L43.8191 13.4868L44.0213 15.8067C44.0966 16.6703 43.2218 17.3032 42.4202 16.9651L40.267 16.0567Z" fill="#FEDE65"/>
<path d="M13.5326 16.0567L11.3795 16.9651C10.5779 17.3032 9.70312 16.6703 9.7784 15.8067L9.98062 13.4868L8.44772 11.7282C7.87706 11.0735 8.21118 10.0495 9.05925 9.85395L11.3374 9.32857L12.5432 7.33338C12.9921 6.5907 14.0734 6.5907 14.5222 7.33338L15.728 9.32857L18.0061 9.85395C18.8542 10.0495 19.1883 11.0736 18.6176 11.7282L17.0847 13.4868L17.2869 15.8067C17.3622 16.6703 16.4874 17.3032 15.6859 16.9651L13.5326 16.0567Z" fill="#FEDE65"/>
<path d="M26.8979 11.3701L24.2598 12.483C23.2778 12.8973 22.2061 12.1219 22.2982 11.0639L22.5459 8.22155L20.6678 6.06708C19.9687 5.26505 20.378 4.01039 21.4171 3.77077L24.2082 3.12708L25.6855 0.682453C26.2354 -0.227484 27.5602 -0.227484 28.1102 0.682453L29.5875 3.12698L32.3786 3.77067C33.4176 4.0103 33.8269 5.26495 33.1278 6.06698L31.2497 8.22145L31.4974 11.0638C31.5897 12.1218 30.5178 12.8973 29.5358 12.483L26.8979 11.3701Z" fill="#FEDE65"/>
</svg>
