<svg width="48" height="48" viewBox="0 0 48 48" fill="none" xmlns="http://www.w3.org/2000/svg">
<g clip-path="url(#clip0_1308_11691)">
<path d="M36.9963 39.8833L37.0095 39.9834C37.1901 41.3547 38.448 42.3198 39.8191 42.1393C41.1902 41.9587 42.1554 40.7007 41.9748 39.3295L41.9616 39.2294C41.781 37.8581 40.5232 36.8929 39.152 37.0735C37.7809 37.254 36.8158 38.512 36.9963 39.8833Z" fill="#FEDE65"/>
<path d="M18.7754 6.03516H23.7835V32.136H18.7754V6.03516Z" fill="#FEDE65"/>
<path d="M18.7754 40.3412V40.4421C18.7754 41.8252 19.8965 42.9464 21.2795 42.9464C22.6625 42.9464 23.7835 41.8251 23.7835 40.4421V40.3412C23.7835 38.9581 22.6625 37.8369 21.2795 37.8369C19.8965 37.8369 18.7754 38.9581 18.7754 40.3412Z" fill="#FEDE65"/>
<path d="M47.4861 42.4765L42.3189 3.23365C42.1892 2.2489 41.6838 1.37356 40.8957 0.768881C40.1079 0.16429 39.1315 -0.0970831 38.1466 0.0323849L30.5344 1.03494C29.5535 1.16413 28.6811 1.66616 28.0767 2.44906C27.3968 1.55759 26.3238 0.981317 25.1187 0.981317H17.4408C16.3355 0.981317 15.3414 1.46591 14.6598 2.2339C13.9781 1.466 12.984 0.981317 11.8788 0.981317H4.2009C2.15051 0.981317 0.482422 2.6494 0.482422 4.6998V44.2816C0.482422 46.332 2.15051 48 4.2009 48H11.8789C12.9841 48 13.9781 47.5154 14.6599 46.7475C15.3415 47.5154 16.3356 48 17.4409 48H25.1187C27.1691 48 28.8372 46.332 28.8372 44.2816V16.6287L32.5006 44.4499C32.7467 46.3189 34.3482 47.6832 36.1846 47.6832C36.3457 47.6832 36.5088 47.6727 36.6728 47.6511L44.2851 46.6486C46.3177 46.3809 47.7538 44.5094 47.4861 42.4765ZM11.8789 46.125H4.2009C3.18437 46.125 2.35741 45.2981 2.35741 44.2816V4.6998C2.35741 3.68336 3.18437 2.85631 4.2009 2.85631H11.8789C12.8954 2.85631 13.7224 3.68327 13.7224 4.6998V44.2816C13.7223 45.298 12.8954 46.125 11.8789 46.125ZM26.9622 44.2816C26.9622 45.2981 26.1353 46.125 25.1187 46.125H17.4409C16.4243 46.125 15.5974 45.2981 15.5974 44.2816V4.6998C15.5974 3.68336 16.4243 2.85631 17.4409 2.85631H25.1187C26.1353 2.85631 26.9622 3.68327 26.9622 4.6998V44.2816ZM44.0402 44.7897L36.4279 45.7921C35.94 45.8566 35.4557 45.7268 35.065 45.427C34.6743 45.1273 34.4238 44.6933 34.3595 44.2051L29.1923 4.9622C29.0595 3.95439 29.7714 3.02655 30.7792 2.8939L38.3915 1.89134C38.4733 1.88056 38.5549 1.87522 38.636 1.87522C39.0392 1.87522 39.4291 2.00694 39.7544 2.2564C40.1451 2.55612 40.3957 2.99009 40.4599 3.47833L45.6272 42.7212C45.7598 43.7291 45.0479 44.6569 44.0402 44.7897Z" fill="#0E1124"/>
<path d="M38.4124 5.09437C38.38 4.8479 38.2509 4.62431 38.0536 4.473C37.8564 4.32168 37.6069 4.25494 37.3605 4.28728L32.3953 4.94118C31.8819 5.00877 31.5206 5.47977 31.5882 5.99305L34.9956 31.8705C35.0281 32.117 35.1572 32.3406 35.3544 32.4919C35.519 32.6182 35.7198 32.6856 35.9251 32.6856C35.9657 32.6856 36.0067 32.683 36.0475 32.6776L41.0127 32.0237C41.5261 31.9561 41.8874 31.4851 41.8198 30.9718L38.4124 5.09437ZM36.7321 30.6963L33.5695 6.6778L36.6758 6.26867L39.8384 30.2872L36.7321 30.6963Z" fill="#0E1124"/>
<path d="M10.5432 5.09766H5.53515C5.01737 5.09766 4.59766 5.51737 4.59766 6.03515V32.136C4.59766 32.6538 5.01737 33.0735 5.53515 33.0735H10.5432C11.061 33.0735 11.4807 32.6538 11.4807 32.136V6.03515C11.4807 5.51737 11.061 5.09766 10.5432 5.09766ZM9.60575 31.1985H6.47265V6.97265H9.60575V31.1985Z" fill="#0E1124"/>
<path d="M5.53516 40.3412V40.4421C5.53516 41.8252 6.65622 42.9464 8.03922 42.9464C9.42222 42.9464 10.5433 41.8251 10.5433 40.4421V40.3412C10.5433 38.9581 9.42222 37.8369 8.03922 37.8369C6.65631 37.8369 5.53516 38.9581 5.53516 40.3412Z" fill="#FEDE65"/>
</g>
<defs>
<clipPath id="clip0_1308_11691">
<rect width="48" height="48" fill="white"/>
</clipPath>
</defs>
</svg>
