<svg width="44" height="46" viewBox="0 0 44 46" fill="none" xmlns="http://www.w3.org/2000/svg">
<path fill-rule="evenodd" clip-rule="evenodd" d="M23.6717 20.1743H43.8656C43.9832 2.34246 21.8875 -6.76683 9.39258 5.89507L23.6717 20.1743Z" fill="#FEDE65"/>
<path d="M41.3874 24.0476H21.5662L7.55051 10.0318C7.21549 9.6834 6.61319 9.6834 6.27817 10.0318C-1.90074 17.974 -1.92539 31.9285 6.27835 39.8626C14.1296 48.045 28.2576 48.0458 36.1089 39.8623C40.093 35.8785 42.2871 30.5814 42.2871 24.9472C42.2871 24.4503 41.8843 24.0476 41.3874 24.0476ZM6.92887 11.9548L19.0217 24.0476H1.91978C2.1257 19.5305 3.88032 15.2945 6.92887 11.9548ZM1.92005 25.8468H20.6742L30.0501 42.0862C17.8803 48.632 2.35087 39.6397 1.92005 25.8468ZM31.6068 41.1841L22.7518 25.8468H40.4671C40.1706 32.2801 36.7088 37.9008 31.6068 41.1841Z" fill="#0E1124"/>
<path d="M16.0875 33.4675L15.1882 33.095C14.81 32.9479 14.6122 32.4703 14.7757 32.0988C14.8529 31.9124 14.9997 31.7666 15.189 31.6881C15.3783 31.6097 15.5852 31.6091 15.7717 31.6862L16.2214 31.8726C16.6804 32.0628 17.2067 31.8447 17.3968 31.3857C17.587 30.9266 17.369 30.4004 16.91 30.2102L16.4602 30.0239C16.3723 29.9876 16.2833 29.9563 16.1932 29.9301V29.5228C16.149 28.3305 14.4378 28.3314 14.394 29.5228V30.0727C13.8118 30.3445 13.3596 30.8157 13.1134 31.4103C12.8522 32.0408 12.8528 32.7368 13.1152 33.3702C13.3775 34.0035 13.8692 34.4961 14.4996 34.7572L15.399 35.1297C15.7873 35.2906 15.9725 35.7374 15.8115 36.1258C15.7343 36.3123 15.5875 36.4581 15.3982 36.5365C15.209 36.6149 15.002 36.6155 14.8155 36.5384L14.3657 36.3521C13.9066 36.1619 13.3804 36.38 13.1904 36.839C13.0002 37.2981 13.2183 37.8243 13.6773 38.0144L14.127 38.2007C14.2148 38.237 14.3039 38.2683 14.3939 38.2945V38.7017C14.4382 39.894 16.1493 39.8931 16.1931 38.7017V38.1518C16.7752 37.8801 17.2275 37.4088 17.4738 36.8142C18.0143 35.5096 17.3924 34.0082 16.0875 33.4675Z" fill="#0E1124"/>
<path d="M25.052 13.7302C25.5488 13.7302 25.9516 13.3275 25.9516 12.8306V11.8944H27.824V12.8306C27.8682 14.023 29.5794 14.0221 29.6232 12.8306V9.15906C29.4852 5.53413 24.289 5.53692 24.1523 9.15906V12.8306C24.1523 13.3275 24.5551 13.7302 25.052 13.7302ZM25.9516 9.15906C25.9988 7.91848 27.7772 7.91938 27.824 9.15906V10.0951H25.9516V9.15906Z" fill="#0E1124"/>
<path d="M31.1966 13.6081C31.6182 13.8561 32.1752 13.7174 32.4269 13.2843L33.2562 11.8628L34.0854 13.2843C34.3372 13.7174 34.8941 13.8561 35.3158 13.6081C35.745 13.3578 35.8899 12.8069 35.6395 12.3778L34.2976 10.0773L35.6394 7.77686C35.8898 7.34765 35.7448 6.79682 35.3157 6.54654C34.8865 6.29618 34.3356 6.4412 34.0854 6.87032L33.2561 8.2919L32.4268 6.87032C32.1764 6.44111 31.6255 6.29618 31.1965 6.54654C30.7673 6.79691 30.6223 7.34774 30.8727 7.77686L32.2146 10.0773L30.8726 12.3778C30.6224 12.8069 30.7675 13.3578 31.1966 13.6081Z" fill="#0E1124"/>
<path d="M19.1537 8.22307H19.8604V12.8308C19.9046 14.0231 21.6158 14.0222 21.6596 12.8308V8.22307H22.3663C23.5586 8.17881 23.5577 6.46764 22.3663 6.42383H19.1536C17.9614 6.46809 17.9622 8.17926 19.1537 8.22307Z" fill="#0E1124"/>
</svg>
