<svg width="48" height="48" viewBox="0 0 48 48" fill="none" xmlns="http://www.w3.org/2000/svg">
<g clip-path="url(#clip0_1308_11726)">
<path d="M24.0009 35.0086C30.0808 35.0086 35.0096 30.0798 35.0096 23.9999C35.0096 17.92 30.0808 12.9912 24.0009 12.9912C17.9209 12.9912 12.9922 17.92 12.9922 23.9999C12.9922 30.0798 17.9209 35.0086 24.0009 35.0086Z" fill="#FEDE65"/>
<path d="M47.3397 19.9584L45.3589 19.3453C44.8062 16.7932 43.8107 14.3912 42.3934 12.1903L43.3614 10.3542C43.5532 9.99066 43.4857 9.54469 43.1951 9.25406L38.746 4.80487C38.4552 4.51425 38.0093 4.44694 37.6459 4.63856L35.8098 5.60672C33.6087 4.18931 31.2068 3.19378 28.6548 2.64122L28.0417 0.660375C27.9201 0.267656 27.557 0 27.1461 0H20.854C20.443 0 20.0799 0.267656 19.9584 0.660281L19.3453 2.64113C16.7933 3.19369 14.3913 4.18922 12.1903 5.60663L10.3542 4.63847C9.99075 4.44684 9.54469 4.51425 9.25406 4.90884L4.80487 9.35794C4.51425 9.54459 4.44684 9.99056 4.63856 10.3541L5.60663 12.2942C4.18931 14.4952 3.19378 16.7931 2.64113 19.3452L0.660281 19.9583C0.267656 20.0799 0 20.443 0 20.8539V27.146C0 27.557 0.267656 27.9201 0.660281 28.0416L2.64113 28.6547C3.19378 31.2068 4.18931 33.6088 5.60663 35.8097L4.63856 37.6458C4.44684 38.0093 4.51434 38.4553 4.80487 38.7459L9.25397 43.1951C9.54469 43.4857 9.99066 43.5531 10.3541 43.3614L12.1902 42.3933C14.3913 43.8107 16.7932 44.8062 19.3452 45.3588L19.9583 47.3396C20.0798 47.7323 20.4429 47.9999 20.8539 47.9999H27.146C27.557 47.9999 27.9201 47.7323 28.0416 47.3396L28.6547 45.3588C31.2067 44.8062 33.6087 43.8107 35.8097 42.3933L37.6458 43.3614C38.0092 43.5531 38.4552 43.4856 38.7459 43.1951L43.195 38.7459C43.4857 38.4552 43.5531 38.0093 43.3613 37.6458L42.3933 35.8097C43.8106 33.6087 44.8061 31.2067 45.3588 28.6547L47.3396 28.0416C47.7323 27.9201 47.9999 27.557 47.9999 27.146V20.8539C48 20.443 47.7323 20.0799 47.3397 19.9584ZM46.125 26.4548L44.2736 27.0279C43.9422 27.1306 43.6944 27.4078 43.6298 27.7487C43.1191 30.44 42.0761 32.9564 40.5301 35.228C40.3349 35.5148 40.314 35.8859 40.4758 36.1927L41.3806 37.9089L37.909 41.3806L36.1928 40.4757C35.8859 40.3138 35.5148 40.3349 35.2281 40.53C32.9563 42.0762 30.44 43.1191 27.7488 43.6297C27.4078 43.6943 27.1306 43.942 27.028 44.2735L26.4548 46.125H21.5452L20.9722 44.2736C20.8695 43.9421 20.5923 43.6944 20.2514 43.6297C17.5602 43.1192 15.0439 42.0763 12.7721 40.5301C12.4854 40.335 12.1142 40.314 11.8073 40.4758L10.0912 41.3807L6.61959 37.909L7.52437 36.1928C7.68619 35.886 7.66528 35.5149 7.47009 35.2281C5.92406 32.9565 4.88109 30.4401 4.37034 27.7488C4.30575 27.4078 4.05797 27.1306 3.72656 27.028L1.875 26.4548V21.5452L3.72638 20.9722C4.05778 20.8695 4.30556 20.5923 4.37016 20.2514C4.88091 17.5601 5.92388 15.1477 7.46991 12.8761C7.66509 12.5892 7.686 12.2182 7.52419 11.9113L6.61941 10.1951L10.091 6.72347L11.8072 7.62834C12.1141 7.79025 12.4852 7.66519 12.7719 7.47C15.0437 5.92378 17.56 4.88091 20.2512 4.37034C20.5922 4.30566 20.8694 4.05797 20.972 3.72647L21.5452 1.875H26.4548L27.0278 3.72638C27.1305 4.05788 27.4077 4.30556 27.7486 4.37025C30.4398 4.88081 32.9561 5.92369 35.2279 7.46991C35.5147 7.66509 35.886 7.68619 36.1927 7.52419L37.9088 6.61931L41.3804 10.091L40.4756 11.8072C40.3138 12.114 40.3347 12.4851 40.5299 12.7719C42.0759 15.0435 43.1189 17.5599 43.6297 20.2512C43.6942 20.5922 43.942 20.8694 44.2734 20.972L46.125 21.5452V26.4548Z" fill="#0E1124"/>
<path d="M23.9988 6.52441C14.3629 6.52441 6.52344 14.6413 6.52344 23.9998C6.52344 33.6357 14.3629 41.4752 23.9988 41.4752C33.6347 41.4752 41.4742 33.6357 41.4742 23.9998C41.4742 14.3639 33.6347 6.52441 23.9988 6.52441ZM23.9988 39.6002C15.3967 39.6002 8.39844 32.6019 8.39844 23.9998C8.39844 15.6751 15.3967 8.39941 23.9988 8.39941C32.6009 8.39941 39.5992 15.3977 39.5992 23.9998C39.5992 32.6019 32.6009 39.6002 23.9988 39.6002Z" fill="#0E1124"/>
<path d="M27.8219 25.4984L24.9375 23.2984V17.7705C24.9375 17.2528 24.5177 16.833 24 16.833C23.4823 16.833 23.0625 17.2528 23.0625 17.7705V23.7624C23.0625 24.0548 23.1989 24.3305 23.4315 24.5078L26.6848 26.9893C26.8546 27.1189 27.0544 27.1815 27.2527 27.1815C27.5351 27.1814 27.8143 27.0544 27.9988 26.8124C28.3128 26.4008 28.2336 25.8125 27.8219 25.4984Z" fill="#06063F"/>
</g>
<defs>
<clipPath id="clip0_1308_11726">
<rect width="48" height="48" fill="white"/>
</clipPath>
</defs>
</svg>
