<svg width="60" height="61" viewBox="0 0 60 61" fill="none" xmlns="http://www.w3.org/2000/svg">
<path d="M56.1372 13.0828C56.0925 12.965 56.0359 12.8519 55.9685 12.7455C55.9417 12.6748 55.9104 12.606 55.8747 12.5393C55.7002 12.3662 55.5049 12.2151 55.2935 12.0896L54.9747 11.9772H5.51223C5.38134 11.9633 5.24936 11.9633 5.11848 11.9772L4.79973 12.0896C4.70052 12.1435 4.60639 12.2062 4.51848 12.277C4.41687 12.3487 4.32266 12.4303 4.23723 12.5206C4.20154 12.5872 4.17022 12.6561 4.14348 12.7267C3.94518 12.9278 3.80856 13.1814 3.74973 13.4576C3.74488 13.5324 3.74488 13.6076 3.74973 13.6824V47.4131C3.74973 47.9101 3.94727 48.3868 4.2989 48.7382C4.65053 49.0896 5.12745 49.2871 5.62473 49.2871H54.3747C54.872 49.2871 55.3489 49.0896 55.7006 48.7382C56.0522 48.3868 56.2497 47.9101 56.2497 47.4131V13.6824C56.2546 13.6076 56.2546 13.5324 56.2497 13.4576C56.2254 13.329 56.1877 13.2034 56.1372 13.0828ZM48.8622 15.5564L29.9997 30.0606L11.1372 15.5564H48.8622ZM52.4997 45.5392H7.49973V17.4303L28.856 33.8459C29.1838 34.0981 29.586 34.2349 29.9997 34.2349C30.4135 34.2349 30.8156 34.0981 31.1435 33.8459L52.4997 17.4303V45.5392Z" fill="#0B0A23"/>
</svg>
