<svg width="60" height="61" viewBox="0 0 60 61" fill="none" xmlns="http://www.w3.org/2000/svg">
<path d="M30 5.56299C24.6957 5.56299 19.6086 7.66887 15.8579 11.4174C12.1071 15.1658 10 20.2499 10 25.551C10 39.043 27.625 54.2839 28.375 54.9335C28.8278 55.3206 29.4041 55.5333 30 55.5333C30.5959 55.5333 31.1722 55.3206 31.625 54.9335C32.5 54.2839 50 39.043 50 25.551C50 20.2499 47.8929 15.1658 44.1421 11.4174C40.3914 7.66887 35.3043 5.56299 30 5.56299ZM30 49.6616C24.675 44.6646 15 33.8961 15 25.551C15 21.5752 16.5804 17.7621 19.3934 14.9508C22.2064 12.1394 26.0218 10.56 30 10.56C33.9782 10.56 37.7936 12.1394 40.6066 14.9508C43.4196 17.7621 45 21.5752 45 25.551C45 33.8961 35.325 44.6896 30 49.6616ZM30 15.557C28.0222 15.557 26.0888 16.1432 24.4443 17.2413C22.7998 18.3395 21.5181 19.9003 20.7612 21.7265C20.0043 23.5527 19.8063 25.5621 20.1921 27.5008C20.578 29.4394 21.5304 31.2202 22.9289 32.6179C24.3275 34.0156 26.1093 34.9674 28.0491 35.353C29.9889 35.7387 31.9996 35.5407 33.8268 34.7843C35.6541 34.0279 37.2159 32.7469 38.3147 31.1034C39.4135 29.4599 40 27.5277 40 25.551C40 22.9005 38.9464 20.3584 37.0711 18.4842C35.1957 16.61 32.6522 15.557 30 15.557ZM30 30.5481C29.0111 30.5481 28.0444 30.255 27.2221 29.7059C26.3999 29.1568 25.759 28.3764 25.3806 27.4633C25.0022 26.5502 24.9031 25.5455 25.0961 24.5762C25.289 23.6068 25.7652 22.7165 26.4645 22.0176C27.1637 21.3188 28.0546 20.8429 29.0245 20.65C29.9945 20.4572 30.9998 20.5562 31.9134 20.9344C32.827 21.3126 33.6079 21.9531 34.1573 22.7749C34.7068 23.5966 35 24.5627 35 25.551C35 26.8763 34.4732 28.1473 33.5355 29.0845C32.5978 30.0216 31.3261 30.5481 30 30.5481Z" fill="#0B0A23"/>
</svg>
