<svg width="60" height="61" viewBox="0 0 60 61" fill="none" xmlns="http://www.w3.org/2000/svg">
<path d="M43.9687 39.7859C43.4461 39.2619 42.8251 38.846 42.1414 38.5623C41.4577 38.2786 40.7246 38.1325 39.9843 38.1325C39.244 38.1325 38.5109 38.2786 37.8272 38.5623C37.1435 38.846 36.5225 39.2619 35.9999 39.7859L33.2812 42.5031C30.2201 40.5615 27.384 38.2864 24.8249 35.7196C22.2621 33.1573 19.9861 30.3235 18.0374 27.2684L20.7562 24.5513C21.2806 24.029 21.6967 23.4084 21.9806 22.7251C22.2645 22.0418 22.4106 21.3092 22.4106 20.5693C22.4106 19.8294 22.2645 19.0968 21.9806 18.4135C21.6967 17.7302 21.2806 17.1096 20.7562 16.5873L15.4499 11.303C14.9347 10.7771 14.319 10.3602 13.6394 10.0769C12.9597 9.79363 12.2301 9.6498 11.4937 9.65395C10.7521 9.65213 10.0175 9.79689 9.33205 10.0799C8.64665 10.3629 8.024 10.7786 7.49994 11.303L4.94994 13.8327C3.73451 15.1387 2.82738 16.7004 2.29525 18.4029C1.76311 20.1053 1.61949 21.9053 1.87494 23.6706C2.47494 30.6976 7.08744 39.1488 14.1937 46.2696C21.2999 53.3903 29.8499 57.9813 36.8812 58.6559C37.4058 58.6839 37.9316 58.6839 38.4562 58.6559C39.9697 58.7194 41.4807 58.4803 42.9006 57.9526C44.3205 57.4249 45.6207 56.6192 46.7249 55.5828L49.2562 53.0343C49.7809 52.5105 50.1968 51.8883 50.48 51.2033C50.7632 50.5183 50.908 49.7841 50.9062 49.0429C50.9103 48.307 50.7664 47.5777 50.483 46.8985C50.1995 46.2193 49.7823 45.6039 49.2562 45.089L43.9687 39.7859ZM46.6124 50.3921L44.0624 52.9218C43.1196 53.7072 42.0189 54.2809 40.835 54.6042C39.651 54.9275 38.4114 54.9928 37.1999 54.7957C31.1062 54.271 23.3437 49.9611 16.9312 43.5524C10.5187 37.1438 6.20619 29.4421 5.62494 23.352C5.42274 22.1413 5.48566 20.9012 5.80936 19.7172C6.13306 18.5331 6.70984 17.4333 7.49994 16.4936L10.1437 13.9451C10.3189 13.7715 10.5267 13.6341 10.7551 13.5408C10.9836 13.4476 11.2282 13.4003 11.4749 13.4017C11.7217 13.4003 11.9663 13.4476 12.1948 13.5408C12.4232 13.6341 12.631 13.7715 12.8062 13.9451L18.1124 19.3044C18.4617 19.6555 18.6577 20.1305 18.6577 20.6255C18.6577 21.1206 18.4617 21.5955 18.1124 21.9466L14.3624 25.6944C14.069 25.9862 13.8804 26.3669 13.8262 26.777C13.7719 27.1872 13.855 27.6037 14.0624 27.9618C16.3075 31.7816 19.0363 35.296 22.1812 38.418C25.3051 41.561 28.8216 44.2881 32.6437 46.5319C33.0019 46.7393 33.4187 46.8223 33.8291 46.768C34.2395 46.7138 34.6204 46.5254 34.9124 46.2321L38.6624 42.4843C39.0137 42.1353 39.489 41.9394 39.9843 41.9394C40.4797 41.9394 40.9549 42.1353 41.3062 42.4843L46.6124 47.7874C46.7862 47.9625 46.9237 48.1702 47.017 48.3985C47.1103 48.6268 47.1576 48.8713 47.1562 49.1179C47.1445 49.5964 46.9499 50.0524 46.6124 50.3921ZM49.8749 10.6658C47.2692 8.05173 44.1714 5.97897 40.7603 4.56708C37.3491 3.15519 33.6921 2.4321 29.9999 2.43951C29.5027 2.43951 29.0257 2.63694 28.6741 2.98836C28.3225 3.33978 28.1249 3.81641 28.1249 4.31339C28.1249 4.81037 28.3225 5.287 28.6741 5.63842C29.0257 5.98984 29.5027 6.18727 29.9999 6.18727C33.2183 6.18716 36.4049 6.82402 39.3757 8.06112C42.3466 9.29821 45.0429 11.111 47.309 13.395C49.5751 15.679 51.3663 18.3888 52.579 21.3682C53.7918 24.3476 54.4022 27.5375 54.3749 30.7538C54.3749 31.2508 54.5725 31.7275 54.9241 32.0789C55.2757 32.4303 55.7527 32.6277 56.2499 32.6277C56.7472 32.6277 57.2241 32.4303 57.5758 32.0789C57.9274 31.7275 58.1249 31.2508 58.1249 30.7538C58.1609 27.0247 57.4494 23.3261 56.0325 19.8761C54.6156 16.4261 52.5219 13.2945 49.8749 10.6658Z" fill="#0B0A23"/>
<path d="M39.2066 21.3844C40.2707 22.4415 41.1125 23.7006 41.6825 25.0876C42.2524 26.4747 42.539 27.9616 42.5254 29.461C42.5254 29.958 42.7229 30.4347 43.0746 30.7861C43.4262 31.1375 43.9031 31.335 44.4004 31.335C44.8977 31.335 45.3746 31.1375 45.7262 30.7861C46.0778 30.4347 46.2754 29.958 46.2754 29.461C46.3002 27.4766 45.9306 25.507 45.1879 23.6665C44.4452 21.826 43.3442 20.1512 41.9488 18.7392C40.5535 17.3272 38.8915 16.2061 37.0593 15.441C35.2271 14.676 33.2611 14.2821 31.2754 14.2822C30.7781 14.2822 30.3012 14.4797 29.9496 14.8311C29.5979 15.1825 29.4004 15.6592 29.4004 16.1562C29.4004 16.6532 29.5979 17.1298 29.9496 17.4812C30.3012 17.8327 30.7781 18.0301 31.2754 18.0301C32.753 18.0412 34.214 18.3432 35.5749 18.9187C36.9358 19.4943 38.1698 20.3321 39.2066 21.3844Z" fill="#0B0A23"/>
</svg>
