<svg width="24" height="24" viewBox="0 0 24 24" fill="none" xmlns="http://www.w3.org/2000/svg">
<g clip-path="url(#clip0_1308_12120)" filter="url(#filter0_d_1308_12120)">
<path d="M14.0317 3.33268C14.6828 3.45973 15.2813 3.77819 15.7504 4.24731C16.2195 4.71642 16.538 5.31486 16.665 5.96601M14.0317 0.666016C15.3845 0.816306 16.6461 1.42213 17.6092 2.38402C18.5723 3.34591 19.1797 4.60669 19.3317 5.95935M18.665 11.2793V13.2793C18.6657 13.465 18.6277 13.6488 18.5533 13.8189C18.479 13.989 18.3699 14.1417 18.233 14.2673C18.0962 14.3928 17.9347 14.4883 17.7588 14.5478C17.5829 14.6073 17.3966 14.6294 17.2117 14.6127C15.1602 14.3898 13.1897 13.6888 11.4583 12.566C9.84755 11.5425 8.48189 10.1768 7.45833 8.56601C6.33165 6.82682 5.63049 4.84668 5.41166 2.78602C5.395 2.60166 5.41691 2.41586 5.47599 2.24043C5.53508 2.06501 5.63004 1.90381 5.75484 1.7671C5.87964 1.63038 6.03153 1.52116 6.20086 1.44636C6.37018 1.37157 6.55322 1.33286 6.73833 1.33268H8.73833C9.06187 1.3295 9.37552 1.44407 9.62084 1.65504C9.86615 1.86601 10.0264 2.15898 10.0717 2.47935C10.1561 3.11939 10.3126 3.74783 10.5383 4.35268C10.628 4.5913 10.6474 4.85062 10.5943 5.09994C10.5411 5.34925 10.4176 5.57809 10.2383 5.75935L9.39166 6.60601C10.3407 8.27504 11.7226 9.65698 13.3917 10.606L14.2383 9.75935C14.4196 9.58011 14.6484 9.45658 14.8977 9.40341C15.1471 9.35024 15.4064 9.36965 15.645 9.45935C16.2498 9.68505 16.8783 9.8416 17.5183 9.92601C17.8422 9.9717 18.1379 10.1348 18.3493 10.3843C18.5608 10.6339 18.6731 10.9524 18.665 11.2793Z" stroke="white" stroke-width="1.6" stroke-linecap="round" stroke-linejoin="round"/>
</g>
<defs>
<filter id="filter0_d_1308_12120" x="0" y="0" width="24" height="24" filterUnits="userSpaceOnUse" color-interpolation-filters="sRGB">
<feFlood flood-opacity="0" result="BackgroundImageFix"/>
<feColorMatrix in="SourceAlpha" type="matrix" values="0 0 0 0 0 0 0 0 0 0 0 0 0 0 0 0 0 0 127 0" result="hardAlpha"/>
<feOffset dy="4"/>
<feGaussianBlur stdDeviation="2"/>
<feComposite in2="hardAlpha" operator="out"/>
<feColorMatrix type="matrix" values="0 0 0 0 0 0 0 0 0 0 0 0 0 0 0 0 0 0 0.25 0"/>
<feBlend mode="normal" in2="BackgroundImageFix" result="effect1_dropShadow_1308_12120"/>
<feBlend mode="normal" in="SourceGraphic" in2="effect1_dropShadow_1308_12120" result="shape"/>
</filter>
<clipPath id="clip0_1308_12120">
<rect width="16" height="16" fill="white" transform="translate(4)"/>
</clipPath>
</defs>
</svg>
