<svg width="44" height="40" viewBox="0 0 44 40" fill="none" xmlns="http://www.w3.org/2000/svg">
<path d="M41.8 20.4889C41.8 8.28889 32.428 0 22 0C11.682 0 2.2 8.11111 2.2 20.6222C0.88 21.3778 0 22.8 0 24.4444V28.8889C0 31.3333 1.98 33.3333 4.4 33.3333H6.6V19.7778C6.6 11.1778 13.486 4.22222 22 4.22222C30.514 4.22222 37.4 11.1778 37.4 19.7778V35.5556H19.8V40H37.4C39.82 40 41.8 38 41.8 35.5556V32.8444C43.098 32.1556 44 30.8 44 29.2V24.0889C44 22.5333 43.098 21.1778 41.8 20.4889V20.4889Z" fill="#0E1124"/>
<path d="M15.3987 24.4444C16.6138 24.4444 17.5987 23.4495 17.5987 22.2222C17.5987 20.9949 16.6138 20 15.3987 20C14.1837 20 13.1987 20.9949 13.1987 22.2222C13.1987 23.4495 14.1837 24.4444 15.3987 24.4444Z" fill="#0E1124"/>
<path d="M28.6013 24.4444C29.8163 24.4444 30.8013 23.4495 30.8013 22.2222C30.8013 20.9949 29.8163 20 28.6013 20C27.3863 20 26.4013 20.9949 26.4013 22.2222C26.4013 23.4495 27.3863 24.4444 28.6013 24.4444Z" fill="#0E1124"/>
<path d="M35.2014 17.8448C34.6768 14.7206 33.0749 11.8847 30.6792 9.83895C28.2835 7.79321 25.2485 6.66959 22.1114 6.66699C15.4454 6.66699 8.27341 12.2448 8.84541 21.0003C11.5583 19.879 13.9543 18.097 15.8199 15.8132C17.6855 13.5294 18.9626 10.8148 19.5374 7.91144C22.4194 13.7559 28.3374 17.7781 35.2014 17.8448Z" fill="#0E1124"/>
</svg>
