<svg width="40" height="40" viewBox="0 0 40 40" fill="none" xmlns="http://www.w3.org/2000/svg">
<path d="M2.35938 0L5.56938 36L19.9744 40L34.4169 35.995L37.6319 0H2.36188H2.35938ZM31.6644 33.705L20.0544 36.9225V36.94L20.0244 36.93L19.9944 36.94V36.9225L8.38437 33.705L5.63937 2.945H34.4094L31.6644 33.705V33.705ZM25.4144 20.71L24.9044 26.435L19.9744 27.765L15.0569 26.44L14.7419 22.915H10.3094L10.9269 29.85L19.9919 32.3575L29.0294 29.85L30.2419 16.295H14.1494L13.7469 11.7725H30.6419L31.0369 7.3575H8.91938L10.1119 20.71H25.4144Z" fill="#0E1124"/>
</svg>
