<svg width="32" height="41" viewBox="0 0 32 41" fill="none" xmlns="http://www.w3.org/2000/svg">
<path d="M7.3372 15.032C7.16039 15.032 6.99082 15.104 6.86579 15.2321C6.74077 15.3603 6.67053 15.5341 6.67053 15.7153C6.67053 15.8965 6.74077 16.0704 6.86579 16.1985C6.99082 16.3267 7.16039 16.3986 7.3372 16.3986H24.6705C24.8473 16.3986 25.0169 16.3267 25.1419 16.1985C25.267 16.0704 25.3372 15.8965 25.3372 15.7153C25.3372 15.5341 25.267 15.3603 25.1419 15.2321C25.0169 15.104 24.8473 15.032 24.6705 15.032H7.3372ZM7.3372 19.132C7.16039 19.132 6.99082 19.204 6.86579 19.3321C6.74077 19.4603 6.67053 19.6341 6.67053 19.8153C6.67053 19.9965 6.74077 20.1704 6.86579 20.2985C6.99082 20.4267 7.16039 20.4986 7.3372 20.4986H24.6705C24.8473 20.4986 25.0169 20.4267 25.1419 20.2985C25.267 20.1704 25.3372 19.9965 25.3372 19.8153C25.3372 19.6341 25.267 19.4603 25.1419 19.3321C25.0169 19.204 24.8473 19.132 24.6705 19.132H7.3372ZM6.67053 23.9153C6.67053 23.7341 6.74077 23.5603 6.86579 23.4321C6.99082 23.304 7.16039 23.232 7.3372 23.232H24.6705C24.8473 23.232 25.0169 23.304 25.1419 23.4321C25.267 23.5603 25.3372 23.7341 25.3372 23.9153C25.3372 24.0965 25.267 24.2704 25.1419 24.3985C25.0169 24.5267 24.8473 24.5986 24.6705 24.5986H7.3372C7.16039 24.5986 6.99082 24.5267 6.86579 24.3985C6.74077 24.2704 6.67053 24.0965 6.67053 23.9153ZM7.3372 27.332C7.16039 27.332 6.99082 27.404 6.86579 27.5321C6.74077 27.6603 6.67053 27.8341 6.67053 28.0153C6.67053 28.1965 6.74077 28.3704 6.86579 28.4985C6.99082 28.6267 7.16039 28.6986 7.3372 28.6986H18.0039C18.1807 28.6986 18.3502 28.6267 18.4753 28.4985C18.6003 28.3704 18.6705 28.1965 18.6705 28.0153C18.6705 27.8341 18.6003 27.6603 18.4753 27.5321C18.3502 27.404 18.1807 27.332 18.0039 27.332H7.3372Z" fill="#0E1124"/>
<path d="M0 4.1C0 3.01261 0.421428 1.96976 1.17157 1.20086C1.92172 0.431963 2.93913 0 4 0H21.4C21.7536 7.74045e-05 22.0927 0.144116 22.3427 0.400433L31.6093 9.89877C31.8594 10.155 31.9999 10.5026 32 10.865V36.9C32 37.9874 31.5786 39.0302 30.8284 39.7991C30.0783 40.568 29.0609 41 28 41H4C2.93913 41 1.92172 40.568 1.17157 39.7991C0.421428 39.0302 0 37.9874 0 36.9V4.1ZM4 2.73333C3.64638 2.73333 3.30724 2.87732 3.05719 3.13362C2.80714 3.38992 2.66667 3.73754 2.66667 4.1V36.9C2.66667 37.2625 2.80714 37.6101 3.05719 37.8664C3.30724 38.1227 3.64638 38.2667 4 38.2667H28C28.3536 38.2667 28.6928 38.1227 28.9428 37.8664C29.1929 37.6101 29.3333 37.2625 29.3333 36.9V11.4308L28.848 10.9333H22.6573C22.305 10.9319 21.9676 10.7871 21.7194 10.5309C21.4711 10.2746 21.3323 9.92781 21.3333 9.56667V3.2308L20.848 2.73333H4Z" fill="#0E1124"/>
</svg>
