<svg width="60" height="60" viewBox="0 0 60 60" fill="none" xmlns="http://www.w3.org/2000/svg">
<path fill-rule="evenodd" clip-rule="evenodd" d="M51.3891 42.5444H16.9531V49.7184C16.9531 51.0318 18.0309 52.1097 19.3445 52.1097H46.8454L55.2153 56.8925V52.1097H57.6066C58.921 52.1097 59.998 51.0336 59.998 49.7184V16.239C59.998 14.9237 58.9217 13.8477 57.6066 13.8477H53.7805V40.1531C53.7806 41.4669 52.7029 42.5444 51.3891 42.5444Z" fill="#FEDE65"/>
<path fill-rule="evenodd" clip-rule="evenodd" d="M17.1797 16.9703H25.3843C25.3843 12.439 21.711 8.76562 17.1797 8.76562V16.9703Z" fill="#FEDE65"/>
<path d="M51.3911 3.10938H3.5632C1.59844 3.10938 0 4.70781 0 6.67258V40.1519C0 42.1168 1.59844 43.7152 3.5632 43.7152H4.78277V47.326C4.78277 47.7436 5.00508 48.1299 5.36637 48.3395C5.72766 48.5492 6.17332 48.5506 6.5359 48.3434L14.6355 43.7151H51.3909C53.3558 43.7151 54.9541 42.1165 54.9541 40.1518V6.67258C54.9543 4.70781 53.3559 3.10938 51.3911 3.10938ZM52.6105 40.1519C52.6105 40.813 52.052 41.3714 51.3911 41.3714H14.3245C14.1206 41.3714 13.9202 41.4246 13.7432 41.5258L7.12652 45.3067V42.5433C7.12652 41.8962 6.60176 41.3714 5.95465 41.3714H3.5632C2.89078 41.3714 2.34375 40.8243 2.34375 40.1519V6.67258C2.34375 6.00016 2.89078 5.45312 3.5632 5.45312H51.3911C52.0635 5.45312 52.6105 6.00016 52.6105 6.67258V40.1519Z" fill="#0E1124"/>
<path d="M38.614 29.4141C36.6492 29.4141 35.0508 31.0126 35.0508 32.9773V37.7599C35.1084 39.3131 37.3373 39.312 37.3945 37.7599V36.5404H39.8336V37.7599C39.8912 39.3131 42.1201 39.312 42.1773 37.7599V32.9773C42.1773 31.0126 40.5789 29.4141 38.614 29.4141ZM39.8336 34.1967H37.3945V32.9774C37.4559 31.3614 39.7727 31.3627 39.8336 32.9774V34.1967Z" fill="#0E1124"/>
<path d="M49.5922 29.5739C49.0331 29.2477 48.3154 29.4367 47.9894 29.9957L46.9091 31.8475L45.8289 29.9957C45.503 29.4369 44.7858 29.248 44.2261 29.5739C43.667 29.9 43.4782 30.6176 43.8044 31.1767L45.5523 34.1732L43.8044 37.1697C43.4782 37.7288 43.667 38.4464 44.2261 38.7725C44.7755 39.0958 45.5009 38.9148 45.8289 38.3507L46.9091 36.4989L47.9894 38.3507C48.3174 38.9148 49.0427 39.0955 49.5922 38.7725C50.1513 38.4464 50.34 37.7288 50.0139 37.1697L48.2659 34.1732L50.0139 31.1767C50.34 30.6176 50.1511 29.9 49.5922 29.5739Z" fill="#0E1124"/>
<path d="M32.7245 29.4141H28.5395C26.9863 29.4717 26.9874 31.7006 28.5395 31.7578H29.46V37.76C29.5176 39.3132 31.7465 39.3121 31.8037 37.76V31.7578H32.7243C34.2777 31.7002 34.2765 29.4713 32.7245 29.4141Z" fill="#0E1124"/>
<path d="M25.0851 33.0027H21.3985L18.2731 27.5892C20.2209 26.0599 21.4743 23.6845 21.4743 21.0218C21.4743 20.3746 20.9496 19.8499 20.3024 19.8499H14.3001V13.8477C14.3001 13.2005 13.7753 12.6758 13.1282 12.6758C8.52615 12.6758 4.78225 16.4197 4.78225 21.0218C4.69072 26.8333 10.9101 31.0155 16.2452 28.7641L19.7071 34.7603C19.9164 35.1229 20.3034 35.3463 20.722 35.3463H25.0851C26.6383 35.2886 26.6371 33.0597 25.0851 33.0027ZM7.126 21.0218C7.126 18.1132 9.20584 15.6811 11.9563 15.1345V20.5364L8.13838 24.3545C7.49924 23.4004 7.126 22.2539 7.126 21.0218ZM9.79576 26.0117L13.6137 22.1936H19.0157C18.2681 26.2967 13.264 28.4158 9.79576 26.0117Z" fill="#0E1124"/>
<path d="M32.7231 15.0195H47.8037C49.3569 14.9619 49.3557 12.733 47.8037 12.6758H32.7231C31.1699 12.7334 31.171 14.9623 32.7231 15.0195Z" fill="#0E1124"/>
<path d="M32.7231 20.3984H47.8037C49.3569 20.3408 49.3557 18.1119 47.8037 18.0547H32.7231C31.1699 18.1123 31.171 20.3412 32.7231 20.3984Z" fill="#0E1124"/>
<path d="M32.7231 25.7812H40.2634C41.8166 25.7236 41.8154 23.4947 40.2634 23.4375H32.7231C31.1699 23.4952 31.171 25.7241 32.7231 25.7812Z" fill="#0E1124"/>
</svg>
