<svg width="60" height="61" viewBox="0 0 60 61" fill="none" xmlns="http://www.w3.org/2000/svg">
<g clip-path="url(#clip0_1308_11637)">
<path d="M51.8766 15.9297H43.2461C42.599 15.9297 42.0742 16.4543 42.0742 17.1016V38.416C42.1319 39.9692 44.3609 39.968 44.418 38.416V18.2734H50.7046V38.416C50.7623 39.9692 52.9913 39.968 53.0484 38.416V17.1016C53.0485 16.4545 52.5237 15.9297 51.8766 15.9297Z" fill="#0E1124"/>
<path d="M37.8516 25.5484H29.2212C28.5741 25.5484 28.0493 26.0731 28.0493 26.7203V44.7858H24.999V17.1016C24.999 16.4543 24.4743 15.9297 23.8271 15.9297H15.1966C14.5495 15.9297 14.0248 16.4543 14.0248 17.1016V44.7858H10.9743V26.7203C10.9743 26.0731 10.4495 25.5484 9.80238 25.5484H1.17188C0.524766 25.5484 0 26.0731 0 26.7203V45.9577C0 46.6049 0.524766 47.1296 1.17188 47.1296H29.2092C29.9551 47.1398 30.5291 46.4095 30.3498 45.6878C30.3779 45.5873 30.393 45.4812 30.393 45.3716V27.8922H36.6797V36.6225C36.7373 38.1757 38.9664 38.1746 39.0234 36.6225V26.7203C39.0234 26.0731 38.4987 25.5484 37.8516 25.5484ZM8.63051 44.7858H2.34375V27.8922H8.63051V44.7858ZM16.3684 18.2734H22.6552V44.7858H16.3684V18.2734Z" fill="#0E1124"/>
<path d="M5.48953 16.1753C5.71043 16.1753 5.93379 16.113 6.13207 15.9826L19.5129 7.18672L32.8938 15.9826C33.2845 16.2393 33.7905 16.2393 34.1812 15.9826L45.8416 8.31769L45.3644 10.6253C45.1018 12.1504 47.2895 12.6123 47.6597 11.1L48.7097 6.02175C48.7726 5.71742 48.7121 5.40043 48.5413 5.14074C48.3705 4.88105 48.1037 4.69976 47.7993 4.63683L42.7209 3.58683C42.0882 3.4564 41.4673 3.86328 41.3361 4.49715C41.2051 5.13101 41.6126 5.75105 42.2466 5.88207L44.5542 6.35925L33.5374 13.6011L20.1566 4.80511C19.7659 4.54836 19.2599 4.54836 18.8692 4.80511L4.84464 14.024C4.30382 14.3796 4.15371 15.1061 4.50914 15.6471C4.73425 15.9895 5.10808 16.1753 5.48953 16.1753Z" fill="#0E1124"/>
<path fill-rule="evenodd" clip-rule="evenodd" d="M30.4421 36.6348H57.6102C58.9255 36.6348 60.0016 37.711 60.0016 39.0261V54.954C60.0016 56.2692 58.9254 57.3453 57.6102 57.3453H30.4421C29.1269 57.3453 28.0508 56.2692 28.0508 54.954V39.0261C28.0508 37.7108 29.1268 36.6348 30.4421 36.6348Z" fill="#FEDE65"/>
<path d="M54.4861 42.2305H50.3012C48.748 42.2881 48.7492 44.5171 50.3012 44.5742H51.2217V50.5764C51.2793 52.1296 53.5084 52.1285 53.5654 50.5764V44.5742H54.4859C56.0393 44.5166 56.0381 42.2875 54.4861 42.2305Z" fill="#0E1124"/>
<path d="M44.3249 42.2305C42.3602 42.2305 40.7617 43.829 40.7617 45.7938V50.5764C40.8194 52.1296 43.0484 52.1285 43.1055 50.5764V49.3569H45.5444V50.5764C45.602 52.1296 47.8311 52.1285 47.8881 50.5764V45.7938C47.8881 43.8289 46.2896 42.2305 44.3249 42.2305ZM45.5444 47.0131H43.1055V45.7938C43.167 44.1777 45.4836 44.1789 45.5444 45.7938V47.0131Z" fill="#0E1124"/>
<path d="M38.7162 42.2909C38.1022 42.0863 37.4387 42.4182 37.2339 43.032L35.9542 46.8711L34.6746 43.032C34.4698 42.4181 33.8063 42.0863 33.1923 42.2909C32.5783 42.4956 32.2464 43.1593 32.451 43.7732L34.8425 50.9473C35.1907 52.0069 36.7182 52.0063 37.0661 50.9473L39.4576 43.7732C39.6621 43.1591 39.3302 42.4955 38.7162 42.2909Z" fill="#0E1124"/>
</g>
<defs>
<clipPath id="clip0_1308_11637">
<rect width="60" height="60" fill="white" transform="translate(0 0.453125)"/>
</clipPath>
</defs>
</svg>
