<svg width="60" height="61" viewBox="0 0 60 61" fill="none" xmlns="http://www.w3.org/2000/svg">
<g clip-path="url(#clip0_1308_11564)">
<path fill-rule="evenodd" clip-rule="evenodd" d="M32.1797 26.7675H58.5195C58.6729 3.50851 29.8524 -8.37318 13.5547 8.14235L32.1797 26.7675Z" fill="#FEDE65"/>
<path d="M55.2883 31.8195H29.4345L11.1532 13.5381C10.7162 13.0836 9.93059 13.0836 9.49361 13.5381C-1.17454 23.8974 -1.20669 42.099 9.49384 52.4478C19.7346 63.1205 38.1625 63.1215 48.4033 52.4474C53.5999 47.2512 56.4617 40.342 56.4617 32.9929C56.4617 32.3449 55.9364 31.8195 55.2883 31.8195ZM10.3423 16.0463L26.1156 31.8195H3.80874C4.07734 25.9277 6.36598 20.4025 10.3423 16.0463ZM3.80909 34.1664H28.271L40.5004 55.3482C24.6269 63.8862 4.37105 52.1571 3.80909 34.1664ZM42.5309 54.1715L30.9809 34.1664H54.0879C53.7011 42.5576 49.1857 49.8889 42.5309 54.1715Z" fill="#0E1124"/>
<path d="M22.2905 44.1061L21.1174 43.6202C20.6241 43.4284 20.3662 42.8054 20.5794 42.3209C20.6801 42.0778 20.8716 41.8875 21.1184 41.7852C21.3653 41.6829 21.6352 41.6821 21.8785 41.7828L22.4651 42.0258C23.0637 42.274 23.7503 41.9894 23.9983 41.3907C24.2463 40.7919 23.962 40.1056 23.3632 39.8575L22.7765 39.6145C22.662 39.5671 22.5458 39.5263 22.4283 39.4921V38.9609C22.3706 37.4057 20.1386 37.4068 20.0815 38.9609V39.6781C19.3222 40.0326 18.7323 40.6472 18.4111 41.4229C18.0705 42.2452 18.0713 43.1531 18.4135 43.9792C18.7556 44.8053 19.3969 45.4478 20.2193 45.7883L21.3924 46.2743C21.8989 46.4841 22.1404 47.0669 21.9305 47.5735C21.8298 47.8167 21.6383 48.0069 21.3914 48.1091C21.1445 48.2115 20.8745 48.2123 20.6312 48.1116L20.0447 47.8687C19.4457 47.6205 18.7594 47.9051 18.5116 48.5038C18.2635 49.1026 18.548 49.7889 19.1466 50.0368L19.7332 50.2798C19.8477 50.3272 19.964 50.3681 20.0814 50.4022V50.9333C20.1391 52.4886 22.3711 52.4874 22.4282 50.9333V50.2161C23.1874 49.8616 23.7774 49.247 24.0986 48.4714C24.8037 46.7697 23.9925 44.8114 22.2905 44.1061Z" fill="#0E1124"/>
<path d="M33.982 18.3626C34.6301 18.3626 35.1554 17.8373 35.1554 17.1892V15.968H37.5977V17.1892C37.6554 18.7444 39.8874 18.7433 39.9445 17.1892V12.4002C39.7645 7.67206 32.9868 7.6757 32.8086 12.4002V17.1892C32.8086 17.8373 33.3339 18.3626 33.982 18.3626ZM35.1554 12.4002C35.217 10.7821 37.5367 10.7833 37.5977 12.4002V13.6212H35.1554V12.4002Z" fill="#0E1124"/>
<path d="M41.9966 18.2028C42.5465 18.5264 43.273 18.3454 43.6013 17.7805L44.683 15.9263L45.7646 17.7805C46.0931 18.3454 46.8194 18.5264 47.3694 18.2028C47.9292 17.8763 48.1183 17.1578 47.7917 16.5981L46.0413 13.5974L47.7916 10.5969C48.1182 10.037 47.929 9.31854 47.3693 8.99209C46.8095 8.66553 46.091 8.85469 45.7645 9.41441L44.6829 11.2686L43.6012 9.41441C43.2746 8.85457 42.556 8.66553 41.9964 8.99209C41.4366 9.31865 41.2476 10.0371 41.5741 10.5969L43.3244 13.5974L41.574 16.5981C41.2477 17.1578 41.4368 17.8763 41.9966 18.2028Z" fill="#0E1124"/>
<path d="M26.2871 11.1789H27.2088V17.1889C27.2666 18.7441 29.4985 18.743 29.5557 17.1889V11.1789H30.4774C32.0326 11.1211 32.0315 8.88918 30.4774 8.83203H26.287C24.7319 8.88976 24.733 11.1217 26.2871 11.1789Z" fill="#0E1124"/>
</g>
<defs>
<clipPath id="clip0_1308_11564">
<rect width="60" height="60" fill="white" transform="translate(0 0.453125)"/>
</clipPath>
</defs>
</svg>
