<svg width="60" height="60" viewBox="0 0 60 60" fill="none" xmlns="http://www.w3.org/2000/svg">
<g clip-path="url(#clip0_1308_8083)">
<path d="M59.07 27.0763C59.7268 26.9392 60.1411 26.2509 59.9555 25.6048C56.4231 12.4589 44.6893 3.16866 31.1727 2.65889V1.46485C31.1727 0.817739 30.6481 0.292969 30.0008 0.292969C29.3536 0.292969 28.8289 0.817739 28.8289 1.46485V2.65889C15.3123 3.16866 3.57847 12.4589 0.0461738 25.6048C-0.27504 26.7745 1.15478 27.6038 2.01131 26.7478C5.37051 23.258 11.4042 23.2627 14.7579 26.758C15.2155 27.2155 15.9577 27.2156 16.4152 26.758C19.6511 23.3874 25.4282 23.2423 28.8289 26.432V36.2699C28.8289 36.917 29.3536 37.4418 30.0008 37.4418C30.6481 37.4418 31.1727 36.917 31.1727 36.2699V26.432C34.5734 23.2422 40.3507 23.3876 43.5865 26.758C44.0441 27.2156 44.7861 27.2156 45.2438 26.758C48.5971 23.2631 54.6295 23.258 57.9889 26.7463C58.2662 27.0313 58.6802 27.1591 59.07 27.0763ZM3.41768 22.9062C6.85881 14.3974 14.1826 8.09268 22.9525 5.86165C18.251 10.5015 16.179 16.2347 14.7421 23.7162C11.5126 21.4663 6.9433 21.1472 3.41768 22.9062ZM22.7937 21.7723C20.8075 21.7723 18.8992 22.2785 17.2159 23.2296C18.6536 16.2369 21.9019 6.94201 28.8291 5.29012V23.5025C27.0376 22.3755 24.9621 21.7723 22.7937 21.7723ZM31.1727 23.5025V5.29012C38.0963 6.94142 41.3462 16.2279 42.7858 23.2296C39.2936 21.2011 34.5629 21.3095 31.1727 23.5025ZM45.2597 23.7164C43.8225 16.2346 41.7507 10.5017 37.0491 5.86165C45.819 8.09256 53.1428 14.3973 56.584 22.9061C53.0581 21.1472 48.4893 21.4663 45.2597 23.7164Z" fill="#0E1124"/>
<path fill-rule="evenodd" clip-rule="evenodd" d="M30.0002 59.7074C36.7775 59.7074 42.305 54.1798 42.305 47.4026C41.6756 31.1031 18.3223 31.1077 17.6953 47.4027C17.6954 54.1798 23.223 59.7074 30.0002 59.7074Z" fill="#FEDE65"/>
<path d="M29.7584 52.895C29.3325 52.895 28.9073 52.8112 28.5028 52.6437L27.9286 52.4058C27.3307 52.1582 27.0468 51.4727 27.2944 50.8748C27.5421 50.2769 28.2276 49.9932 28.8256 50.2407L29.3997 50.4783C29.6318 50.5745 29.8899 50.5736 30.1258 50.476C30.3617 50.3782 30.5446 50.1965 30.6408 49.9642C30.8445 49.5017 30.5979 48.9061 30.1268 48.7231L28.9785 48.2474C27.3006 47.5522 26.501 45.6217 27.1961 43.9439C27.5318 43.1332 28.1652 42.501 28.9796 42.1638C29.7938 41.8264 30.6887 41.8257 31.4994 42.1614L32.0735 42.3991C32.6716 42.6467 32.9555 43.3323 32.7078 43.9302C32.4601 44.5282 31.7746 44.8122 31.1767 44.5645L30.6026 44.3267C30.3705 44.2306 30.1125 44.2312 29.8765 44.329C29.6406 44.4268 29.4577 44.6085 29.3615 44.8407C29.161 45.3246 29.3916 45.8815 29.8756 46.082L31.0238 46.5576C32.6687 47.1988 33.516 49.2445 32.8063 50.8611C32.4707 51.6716 31.8372 52.3039 31.0228 52.6413C30.6146 52.8104 30.1862 52.895 29.7584 52.895Z" fill="#0E1124"/>
<path d="M30 43.9033C29.3528 43.9033 28.8281 43.3785 28.8281 42.7314V41.5434C28.8858 39.9902 31.1148 39.9913 31.1719 41.5434V42.7314C31.1719 43.3785 30.6472 43.9033 30 43.9033Z" fill="#0E1124"/>
<path d="M30 54.4357C29.3528 54.4357 28.8281 53.9109 28.8281 53.2638V51.9692C28.8858 50.4159 31.1148 50.4171 31.1719 51.9692V53.2638C31.1719 53.9109 30.6472 54.4357 30 54.4357Z" fill="#0E1124"/>
</g>
<defs>
<clipPath id="clip0_1308_8083">
<rect width="60" height="60" fill="white"/>
</clipPath>
</defs>
</svg>
