<svg width="60" height="60" viewBox="0 0 60 60" fill="none" xmlns="http://www.w3.org/2000/svg">
<g clip-path="url(#clip0_1308_8133)">
<path fill-rule="evenodd" clip-rule="evenodd" d="M26.8996 27.3163L22.8567 23.2734L22.5943 23.5359L17.2891 28.4251L21.7472 32.8832L26.6186 27.5972L26.8996 27.3163Z" fill="#0E1124"/>
<path fill-rule="evenodd" clip-rule="evenodd" d="M31.3052 43.2578H57.6079C58.923 43.2578 59.999 44.3338 59.999 45.6489V57.6047C59.999 58.9198 58.923 59.9958 57.6079 59.9958H31.3052C29.9901 59.9958 28.9141 58.9198 28.9141 57.6047V45.649C28.9141 44.3339 29.9901 43.2578 31.3052 43.2578Z" fill="#FEDE65"/>
<path d="M34.9284 38.53C35.2284 38.53 35.5281 38.4155 35.7569 38.1868L49.8291 24.1147C50.2829 23.6783 50.2829 22.8938 49.8291 22.4574L45.8085 18.4369C45.3508 17.9794 44.6091 17.9794 44.1513 18.4369L43.9748 18.6133L31.5599 6.19855L31.7364 6.02209C32.1939 5.56451 32.1939 4.82255 31.7364 4.36485L27.7158 0.344276C27.2794 -0.10955 26.4949 -0.10955 26.0585 0.344276L11.9865 14.4163C11.529 14.8739 11.529 15.6158 11.9865 16.0735L16.0071 20.0941C16.4435 20.5479 17.228 20.5479 17.6643 20.0941L17.8408 19.9176L21.1748 23.2517L1.56727 41.3213C-1.83566 44.5365 0.704734 50.2809 5.33592 50.1668C6.70138 50.1389 7.95014 49.5845 8.85193 48.6058L26.9216 28.9984L30.2557 32.3325L30.0792 32.509C29.6254 32.9455 29.6254 33.7298 30.0792 34.1662L34.0998 38.1868C34.3287 38.4155 34.6285 38.53 34.9284 38.53ZM14.4722 15.245L26.8871 2.83007L29.2506 5.19353L16.8357 17.6084L14.4722 15.245ZM7.12861 47.0177C6.66318 47.5228 6.00957 47.8089 5.28799 47.8237C4.5042 47.8377 3.74009 47.5333 3.18994 46.9832C2.63991 46.4333 2.33361 45.6684 2.34955 44.8854C2.36419 44.1638 2.65046 43.5102 3.15549 43.0446L22.8333 24.9102L25.2629 27.34L7.12861 47.0177ZM19.498 18.2605L29.9028 7.85579L42.3177 20.2708L31.9129 30.6754L19.498 18.2605ZM44.9798 20.9228L47.3433 23.2861L34.9284 35.701L32.5649 33.3376L44.9798 20.9228Z" fill="#0E1124"/>
<path d="M44.3012 46.8672C42.3366 46.8672 40.7383 48.4656 40.7383 50.4301V55.2123C40.7959 56.7654 43.0246 56.7642 43.0818 55.2123V53.9928H45.5206V55.2123C45.5783 56.7654 47.807 56.7642 47.8642 55.2123V50.4301C47.8642 48.4655 46.2658 46.8672 44.3012 46.8672ZM45.5206 51.6493H43.0818V50.4301C43.1432 48.8142 45.4598 48.8155 45.5206 50.4301V51.6493Z" fill="#0E1124"/>
<path d="M53.953 51.6259L55.7008 48.6297C56.0269 48.0706 55.8382 47.353 55.2791 47.027C54.7201 46.7008 54.0025 46.8898 53.6765 47.4488L52.5964 49.3004L51.5162 47.4488C51.1903 46.8901 50.4732 46.7011 49.9136 47.027C49.3545 47.353 49.1658 48.0706 49.4919 48.6297L51.2397 51.6259L49.4919 54.6221C49.1658 55.1812 49.3545 55.8988 49.9136 56.2247C50.4629 56.548 51.1882 56.3671 51.5162 55.803L52.5964 53.9514L53.6765 55.803C54.0045 56.3671 54.7297 56.5478 55.2791 56.2247C55.8382 55.8988 56.0269 55.1812 55.7008 54.6221L53.953 51.6259Z" fill="#0E1124"/>
<path d="M38.4114 46.8672H34.2269C32.6738 46.9248 32.675 49.1535 34.2269 49.2107H35.1473V55.2124C35.2049 56.7655 37.4336 56.7643 37.4908 55.2124V49.2107H38.4112C39.9643 49.153 39.9631 46.9243 38.4114 46.8672Z" fill="#0E1124"/>
</g>
<defs>
<clipPath id="clip0_1308_8133">
<rect width="60" height="60" fill="white"/>
</clipPath>
</defs>
</svg>
