<svg width="24" height="30" viewBox="0 0 24 30" fill="none" xmlns="http://www.w3.org/2000/svg">
<g clip-path="url(#clip0_1308_5074)">
<path d="M0.5016 9.997H22.2944L18.1472 15.181C17.952 15.425 17.952 15.821 18.1472 16.065C18.2448 16.186 18.3736 16.247 18.5008 16.247C18.628 16.247 18.7568 16.186 18.8536 16.066L23.8536 9.816C23.8672 9.799 23.8728 9.776 23.8848 9.758C23.9136 9.713 23.944 9.667 23.9616 9.612C23.98 9.558 23.984 9.501 23.9888 9.445C23.992 9.42 24.0008 9.399 24.0008 9.372C24.0008 9.313 23.9856 9.261 23.9736 9.207C23.9688 9.185 23.9696 9.16 23.9624 9.137C23.9368 9.056 23.8976 8.985 23.8472 8.925L18.8536 2.683C18.6584 2.439 18.3416 2.439 18.1464 2.683C17.9512 2.927 17.9512 3.323 18.1464 3.567L22.2912 8.748H0.5C0.224 8.748 0 9.028 0 9.373C0 9.718 0.224 9.998 0.5 9.998L0.5016 9.997ZM23.5016 19.997H1.7088L5.8544 14.815C6.0496 14.571 6.0496 14.175 5.8544 13.931C5.6592 13.687 5.3424 13.687 5.1472 13.931L0.1472 20.181C0.1432 20.186 0.1424 20.194 0.1368 20.198C0.0968 20.252 0.0616 20.313 0.0392 20.382C-0.012 20.536 -0.012 20.708 0.0392 20.862C0.0528 20.903 0.0768 20.935 0.0976 20.971C0.1144 21.002 0.1248 21.036 0.1464 21.063L5.1464 27.313C5.244 27.434 5.3728 27.495 5.5008 27.495C5.6288 27.495 5.7568 27.434 5.8536 27.311C6.0488 27.067 6.0488 26.671 5.8536 26.427L1.708 21.245H23.5016C23.7776 21.245 24.0016 20.965 24.0016 20.62C24.0016 20.275 23.7776 19.996 23.5016 19.996V19.997Z" fill="white"/>
</g>
<defs>
<clipPath id="clip0_1308_5074">
<rect width="24" height="30" fill="white"/>
</clipPath>
</defs>
</svg>
