<svg width="24" height="24" viewBox="0 0 24 24" fill="none" xmlns="http://www.w3.org/2000/svg">
<path d="M22.2857 7.9827C22.2857 7.25949 22.1897 6.62109 21.9978 6.06752C21.8058 5.51395 21.5603 5.07422 21.2612 4.74833C20.9621 4.42243 20.5982 4.15681 20.1696 3.95145C19.7411 3.74609 19.3214 3.6077 18.9107 3.53627C18.5 3.46484 18.0625 3.42913 17.5982 3.42913C17.1339 3.42913 16.6339 3.54297 16.0982 3.77065C15.5625 3.99833 15.0692 4.28404 14.6183 4.62779C14.1674 4.97154 13.7812 5.29297 13.4598 5.59208C13.1384 5.89118 12.8705 6.16574 12.6562 6.41574C12.4955 6.61217 12.2768 6.71038 12 6.71038C11.7232 6.71038 11.5045 6.61217 11.3438 6.41574C11.1295 6.16574 10.8616 5.89118 10.5402 5.59208C10.2188 5.29297 9.83259 4.97154 9.3817 4.62779C8.9308 4.28404 8.4375 3.99833 7.90179 3.77065C7.36607 3.54297 6.86607 3.42913 6.40179 3.42913C5.9375 3.42913 5.5 3.46484 5.08929 3.53627C4.67857 3.6077 4.25893 3.74609 3.83036 3.95145C3.40179 4.15681 3.03795 4.42243 2.73884 4.74833C2.43973 5.07422 2.1942 5.51395 2.00223 6.06752C1.81027 6.62109 1.71429 7.25949 1.71429 7.9827C1.71429 9.4827 2.54911 11.0675 4.21875 12.7372L12 20.2372L19.7679 12.7506C21.4464 11.072 22.2857 9.4827 22.2857 7.9827ZM24 7.9827C24 9.95592 22.9777 11.9648 20.933 14.0095L12.5893 22.0452C12.4286 22.2059 12.2321 22.2863 12 22.2863C11.7679 22.2863 11.5714 22.2059 11.4107 22.0452L3.05357 13.9827C2.96429 13.9113 2.84152 13.7952 2.68527 13.6345C2.52902 13.4738 2.28125 13.1814 1.94196 12.7573C1.60268 12.3331 1.29911 11.8979 1.03125 11.4515C0.763393 11.005 0.524554 10.4648 0.314732 9.83092C0.104911 9.19699 0 8.58092 0 7.9827C0 6.01841 0.566964 4.4827 1.70089 3.37556C2.83482 2.26842 4.40179 1.71484 6.40179 1.71484C6.95536 1.71484 7.52009 1.81083 8.09598 2.00279C8.67188 2.19475 9.20759 2.45368 9.70312 2.77958C10.1987 3.10547 10.625 3.41127 10.9821 3.69699C11.3393 3.9827 11.6786 4.28627 12 4.6077C12.3214 4.28627 12.6607 3.9827 13.0179 3.69699C13.375 3.41127 13.8013 3.10547 14.2969 2.77958C14.7924 2.45368 15.3281 2.19475 15.904 2.00279C16.4799 1.81083 17.0446 1.71484 17.5982 1.71484C19.5982 1.71484 21.1652 2.26842 22.2991 3.37556C23.433 4.4827 24 6.01841 24 7.9827Z" fill="white"/>
</svg>
