<svg width="24" height="24" viewBox="0 0 24 24" fill="none" xmlns="http://www.w3.org/2000/svg">
<g clip-path="url(#clip0_1308_5069)">
<path d="M15.366 3.4375L18.577 8.9995H22V10.9995H20.833L20.076 20.0825C20.0552 20.3324 19.9413 20.5653 19.7568 20.7352C19.5723 20.905 19.3308 20.9994 19.08 20.9995H4.92C4.66925 20.9994 4.4277 20.905 4.24322 20.7352C4.05875 20.5653 3.94481 20.3324 3.924 20.0825L3.166 10.9995H2V8.9995H5.422L8.634 3.4375L10.366 4.4375L7.732 8.9995H16.267L13.634 4.4375L15.366 3.4375ZM18.826 10.9995H5.173L5.84 18.9995H18.159L18.826 10.9995ZM13 12.9995V16.9995H11V12.9995H13ZM9 12.9995V16.9995H7V12.9995H9ZM17 12.9995V16.9995H15V12.9995H17Z" fill="white"/>
</g>
<defs>
<clipPath id="clip0_1308_5069">
<rect width="24" height="24" fill="white"/>
</clipPath>
</defs>
</svg>
