<svg width="38" height="38" viewBox="0 0 38 38" fill="none" xmlns="http://www.w3.org/2000/svg">
<path fill-rule="evenodd" clip-rule="evenodd" d="M31.3202 21.6719H10.5391C10.5391 23.3114 9.20987 24.6406 7.57031 24.6406V31.3203C9.20987 31.3203 10.5391 32.6495 10.5391 34.289H31.3202C31.3202 32.6495 32.6494 31.3203 34.289 31.3203V24.6406C32.6494 24.6406 31.3202 23.3115 31.3202 21.6719Z" fill="#FEDE65"/>
<path d="M37.2577 17.961H31.1718V8.16403C31.1718 7.9672 31.0935 7.77847 30.9544 7.63923L23.5325 0.217386C23.3934 0.0782262 23.2046 0 23.0077 0H0.742185C0.33235 0 0 0.33235 0 0.742185V34.2889C0 34.6988 0.332276 35.0311 0.742185 35.0311H3.85943V37.2578C3.85943 37.6677 4.19171 38 4.60162 38H37.2577C37.6676 38 37.9999 37.6677 37.9999 37.2578V18.7032C37.9999 18.2933 37.6676 17.961 37.2577 17.961ZM23.7499 2.53404L28.6378 7.42192H23.7499V2.53404ZM1.48437 33.5467V1.48437H22.2655V8.1641C22.2655 8.57394 22.5979 8.90629 23.0077 8.90629H29.6874V17.961H4.60169C4.19178 17.961 3.85951 18.2934 3.85951 18.7032V33.5467H1.48437ZM36.5156 36.5156H5.3438V19.4454H36.5156V36.5156Z" fill="#0E1124"/>
<path d="M20.3188 28.5308L20.9732 28.8019C21.2072 28.8988 21.323 29.1783 21.226 29.4124C21.1788 29.5265 21.0888 29.6158 20.9727 29.6639C20.8567 29.712 20.7297 29.7124 20.6155 29.6653L20.2884 29.5298C19.9096 29.3731 19.4755 29.5528 19.3187 29.9314C19.1618 30.3102 19.3416 30.7443 19.7203 30.9011L20.0475 31.0367C20.094 31.0559 20.1407 31.0732 20.1878 31.0886V31.3204C20.2243 32.3041 21.636 32.3034 21.6722 31.3204V30.9757C22.0759 30.7726 22.4115 30.4297 22.5975 29.9804C23.0093 28.9862 22.5354 27.8423 21.5414 27.4306L20.8869 27.1594C20.6529 27.0625 20.537 26.783 20.634 26.5489C20.6813 26.4348 20.7712 26.3455 20.8874 26.2974C21.0036 26.2493 21.1305 26.2488 21.2445 26.296L21.5718 26.4316C21.9503 26.5882 22.3845 26.4086 22.5414 26.0298C22.6982 25.6511 22.5183 25.217 22.1397 25.0602L21.8124 24.9246C21.7661 24.9055 21.7194 24.8882 21.6722 24.8727V24.6408C21.6357 23.6571 20.224 23.6579 20.1878 24.6408V24.9861C19.2907 25.4154 18.864 26.5604 19.2638 27.474C19.4638 27.9565 19.8384 28.3317 20.3188 28.5308Z" fill="#06063F"/>
<path d="M28.3965 30.3925C29.7266 30.3925 30.8086 29.3105 30.8086 27.9804C30.6874 24.7847 26.1051 24.7856 25.9844 27.9804C25.9844 29.3105 27.0665 30.3925 28.3965 30.3925ZM28.3965 27.0526C28.9081 27.0526 29.3242 27.4688 29.3242 27.9804C29.2776 29.2094 27.5152 29.2091 27.4688 27.9804C27.4688 27.4688 27.885 27.0526 28.3965 27.0526Z" fill="#06063F"/>
<path d="M13.4629 30.3925C14.7929 30.3925 15.875 29.3104 15.875 27.9804C15.7537 24.7848 11.1715 24.7856 11.0508 27.9804C11.0508 29.3104 12.1329 30.3925 13.4629 30.3925ZM13.4629 27.0526C13.9745 27.0526 14.3906 27.4688 14.3906 27.9804C14.344 29.2094 12.5816 29.2091 12.5352 27.9804C12.5352 27.4688 12.9513 27.0526 13.4629 27.0526Z" fill="#06063F"/>
<path d="M4.60077 4.45312H5.15742V8.90625C5.19393 9.88995 6.60565 9.8892 6.64179 8.90625V4.45312H7.19843C8.18213 4.41661 8.18138 3.00489 7.19843 2.96875H4.60077C3.61708 3.00527 3.61782 4.41698 4.60077 4.45312Z" fill="#0E1124"/>
<path d="M9.37109 9.64856C9.781 9.64856 10.1133 9.31621 10.1133 8.90637V7.79302H11.5977V8.90637C11.6342 9.89007 13.0459 9.88932 13.082 8.90637V5.19543C12.9697 2.24494 8.74016 2.24717 8.62891 5.19543V8.90637C8.62891 9.31621 8.96118 9.64856 9.37109 9.64856ZM10.1133 5.19543C10.1507 4.21196 11.5605 4.2127 11.5977 5.19543V6.30864H10.1133V5.19543Z" fill="#0E1124"/>
<path d="M14.3714 9.57023C14.7301 9.75184 15.1831 9.6086 15.3672 9.23824L16.0021 7.96829L16.637 9.23824C16.821 9.6086 17.274 9.75176 17.6328 9.57023C17.9995 9.38691 18.1481 8.94107 17.9647 8.57451L16.8319 6.30876L17.9647 4.04301C18.1481 3.67644 17.9995 3.23061 17.6328 3.04729C17.266 2.86397 16.8204 3.01248 16.637 3.37927L16.0021 4.64922L15.3672 3.37927C15.1839 3.01263 14.7382 2.86404 14.3714 3.04729C14.0047 3.23061 13.8561 3.67644 14.0395 4.04301L15.1723 6.30876L14.0395 8.57451C13.8561 8.94115 14.0047 9.38698 14.3714 9.57023Z" fill="#0E1124"/>
<path d="M4.60077 13.3594H26.5692C27.5529 13.3229 27.5522 11.9112 26.5692 11.875H4.60077C3.61708 11.9115 3.61782 13.3232 4.60077 13.3594Z" fill="#0E1124"/>
<path d="M4.60077 16.4023H23.0068C23.9905 16.3658 23.9897 14.9542 23.0068 14.918H4.60077C3.61708 14.9545 3.61782 16.3662 4.60077 16.4023Z" fill="#0E1124"/>
</svg>
